<svg xmlns="http://www.w3.org/2000/svg" viewBox="0 0 244.487 244.487" width="512" height="512"><path d="M241.877 230.131l-72.929-72.929c13.973-16.67 22.465-38.004 22.465-61.061 0-52.204-43.503-95.707-95.707-95.707S0 43.938 0 96.142s43.503 95.707 95.707 95.707c22.621 0 43.573-8.179 60.104-21.682l72.145 72.145c1.74 1.74 3.48 1.74 6.96 1.74s5.22 0 6.96-1.74c3.482-3.48 3.482-8.7.001-12.181zm-146.17-55.683c-43.503 0-78.305-34.802-78.305-78.305s34.802-78.305 78.305-78.305 78.305 34.802 78.305 78.305-34.802 78.305-78.305 78.305z" fill="#c4c4c4"/></svg>