<svg xmlns="http://www.w3.org/2000/svg" viewBox="-206 283.8 197.5 226.2"><g fill="#FFF"><path d="M-200.2 411.1l.1 4.6-.1 5.3h12.1l.1-4.9-.1-8.8h-12.1zm0-97.2l12.1.1c0-5.8-.3-11.8 6.2-15.9 5.2-3.1 13-2.2 19.8-2.2h88c5.4 0 16.7-.7 20.9 1 5.3 2.2 8.6 6.5 8.5 13.9l12.1.1c0-9.2-2.2-14.1-8.1-20-5.2-5.3-11.4-7.1-21-7.1h-112.4c-6.1 0-11.2 1.7-15.9 5-3.8 2.7-7.5 7.4-9.1 12.2-1.3 4.7-1.1 7.8-1.1 12.9zm0 147.9v3.7c0 11.5 7.2 19.3 14.7 22.9 8.3 4 24.7 2.6 35 2.6 6.2 0 71.1.3 75.4-.1l-10.4-11.5c-1.3-1.2-10.8-.6-12.9-.6h-71.7c-14.7 0-17.7-5.2-18-18.1h-12.1v1.1z"/><path d="M-175.2 444.7c-13 2.2-9.5 21.5 3.4 19.1 12.3-2.3 9-21.1-3.4-19.1zm-.7-133.7c-4.6 1.2-8.8 5.6-7.2 11.8 3.1 12.2 21.8 7.9 18.9-4.7-1.1-4.5-5.9-8.6-11.7-7.1zm.1 53.5c-12.9 3-8 22.1 4.5 18.9 4.4-1.1 8.4-5.8 7-11.8-1-4.5-5.8-8.4-11.5-7.1zm0-26.7c-12.6 2.9-8.2 22 4.5 18.8 4.4-1.1 8.5-5.9 7-11.7-1.1-4.5-5.7-8.5-11.5-7.1zm-3.7 82.2c-1.4.4-2.8 2.4-3.5 4.5-2.2 7.1 4 14.3 11.7 12.4 8-2 11.4-14.5 0-18.9l-1.9-.2h.1c-2.2 0-2.6.1-4.5.8l.1.1c-1.2.3-1.4.3-2 1.3zm-24.1 4.1c-3.8 1.7-2.9 7 2 7.2 2.3 0 12.1.3 13.5-.3 3.3-1.3 3.3-7-2-7.2-2.4-.1-11.9-.4-13.5.3zm3.4-83.4l1.3.1 1.4-.1h9.5V327l-12.2-.1zm0 107.1h12.1l.1-13.8h-12.2zm0-80.3h12l.2-13.8h-12.2z"/><path d="M-203.7 370.6c-3.5 1.5-3.1 7 2.1 7.2 2.4.1 12 .3 13.5-.3 3.3-1.2 3.5-7-2-7.2-2.4-.2-12-.4-13.6.3zm.9-27c-4.5 1.1-3.9 6.9.3 7.4 1.5.2 12.7.2 13.9-.1 3.8-.8 3.9-6.8-.6-7.4-1.3-.1-12.8-.1-13.6.1zm-.3-26.7c-4.4 1.4-3.7 7 .8 7.3 1.8.1 12.7.2 13.8-.2 3.7-1.1 3.5-6.9-1.1-7.3-1.9-.1-12.1-.2-13.5.2zm-.5 134c-3.8 1.7-3 7.1 2 7.2 2.3.1 12.1.3 13.6-.3 3.4-1.4 3.2-7-2-7.2-2.6-.2-11.9-.4-13.6.3zm171.2-56.3v-8.8c-2.4-1-8.9-.3-11.8-.4v3.8c3.5 1 1.7 2.2 2.4 5.1l2.9.3c.4 1 .5 2 .6 3.3.9-1.4 3.4-2.9 5.9-3.3zm-155.7-.8l.1-13.3h-11.8l-.2 13.8h11c1.6 0 .3.1.9-.5zm5.1 4.4c-.9 2.4-.2 5.7.9 7.4l.1.6c.6.2.2 0 .8.8.5.7.5.8.9 1.1.3.2 2.1 1.2 2.7 1.4 1.5.7 3.1.9 5 .7l.7-.1c5.1-2.1 5.3-1.8 7.5-6.9v-.8c.7-.9.3-3.2.1-4.5l-.1.2-.9-2.3c-3.4-6.7-14.3-6.5-17.1.4l-.6 1.2v.8zm-21.7-.6c-.7 1.3-1.5 2.8-.8 4.7 2.4 3.3 2.8 1.7 6.8 2.2 2.7 0 8.1.3 10.3-.4 1.2-.4 2-1.2 2.4-2.5.6-1.6-.4-2.9-1-3.9-1.3-.1-2-.6-4.1-.6-1.7 0-3.1-.1-4.7-.1-3.2-.1-6.4.3-8.9.6zM-89.6 329c15.5-.1 30.4-2 30.1 20.1-.1 7.8-2.9 14.2-7.7 17.3-5.3 3.3-15.4 2.1-22.4 2.3V329zm-33.1 0c4.1-.4 14-.3 18.1.2 12.8 1.6 12.5 16.3 6.6 21.9-3.5 3.2-9.6 2.6-15.2 2.9l-.1 14.6h-9.4V329zm69.5 0l25.4.1v6.7l-16 .1v10.3l12.4.1-.1 6.7-12.3.1-.1 15.6h-9.4l.1-39.7zm-76.7-11.9c-6.9 2-5.1 8.8-5.1 17.7v33.9c0 3.8-.7 7.4 1.9 9.8 2.7 2.6 4.8 2.3 9.1 2.3h79.5c4.4 0 19.4.5 22.6-.3 7.1-1.9 5.3-10.1 5.3-17.5v-22.7c0-25.3 3.1-23.5-22.4-23.5-5.4 0-88-.5-90.9.3z"/><path d="M-80.2 336.9v24.9c4.4-.1 6.6-.1 8.6-3.2 2.7-4.2 2.9-15.2.2-19.5-1.9-3.1-4.3-3.3-8.7-3.3v1.1zm5.9 82.7c-.1 4.9-.1 11.5 0 18.2v25.5c0 .2 0 .4-.1.5h-18.2c1.3 2 6.1 6.7 7.6 8.6l18.3 20.2c1.3 1.3 1.6 1.6 2.6 2.8.9 1.2 1.9 1.9 2.8 3 1.4 1.7 9.5 11 11 11.6l38.9-43c1.4-1.7 2.2-2.2 2.7-3.3H-27v-55.4h-47.5v11.3zm-38.9-72.5c5.4.4 9 .1 9-5.8 0-5.9-3.5-6.2-9-5.8v11.6zm68.7 44.2l-.1 11.7c.3 1.7-.2.6.6 1.3h4.9c0-3.5 3.8-7.6 6.9-7.6l-.1-2.2c-2.5.4-5 1.9-5.9 3.3-.1-1.2-.3-2.3-.6-3.3l-2.9-.3c-.7-2.8 1.1-4-2.4-5.1v-3.8c3 .2 9.5-.6 11.8.4-.7-.9.2-.3-1-.6-.3-.1-1.3 0-1.7 0h-9.5v6.2z"/><path d="M-44.5 385.1h12.1v19.3h-12.1z"/></g></svg>