<?xml version="1.0" encoding="utf-8"?>
<!-- Generator: Adobe Illustrator 19.2.0, SVG Export Plug-In . SVG Version: 6.00 Build 0)  -->
<svg version="1.1" id="Слой_1" xmlns="http://www.w3.org/2000/svg" xmlns:xlink="http://www.w3.org/1999/xlink" x="0px" y="0px"
	 viewBox="0 0 268.7 187" enable-background="new 0 0 268.7 187" xml:space="preserve">
<path fill-rule="evenodd" clip-rule="evenodd" fill="#005EAA" d="M139.9,121.3h4.9v29.5h-4.9V121.3z M196.1,138.2l-0.1,0.4l-0.1,0.4
	l-0.1,0.4l-0.1,0.4l-0.1,0.4l-0.1,0.4l-0.1,0.4l-0.1,0.4l-0.2,0.3l-0.2,0.3l-0.2,0.3l-0.2,0.3l-0.2,0.3l-0.2,0.3l-0.2,0.3l-0.2,0.3
	l-0.2,0.3l-0.3,0.3l-0.3,0.3l-0.3,0.3l-0.3,0.3l-0.3,0.3l-0.3,0.3l-0.3,0.3l-0.3,0.3l-0.3,0.3l-0.3,0.3l-0.3,0.3l-0.4,0.3l-0.4,0.2
	l-0.4,0.2l-0.4,0.2l-0.4,0.2l-0.4,0.2l-0.4,0.2L187,149l-0.4,0.2l-0.4,0.2l-0.4,0.2l-0.4,0.2l-0.4,0.2l-0.4,0.1l-0.4,0.1l-0.4,0.1
	l-0.4,0.1l-0.4,0.1l-0.4,0.1l-0.4,0.1l-0.5,0.1l-0.5,0.1l-0.5,0.1l-0.5,0.1l-0.5,0.1l-0.5,0.1l-0.5,0l-0.5,0l-0.5,0l-0.5,0l-0.5,0
	l-0.5,0l-0.5,0l-0.5,0l-0.5,0l-0.5,0l-0.5,0l-0.5,0l-0.5-0.1l-0.5-0.1l-0.5-0.1l-0.5-0.1l-0.5-0.1l-0.5-0.1l-0.5-0.1l-0.5-0.1
	l-0.4-0.1l-0.4-0.1l-0.4-0.1l-0.4-0.1l-0.4-0.2l-0.4-0.2l-0.4-0.2l-0.4-0.2l-0.4-0.2l-0.4-0.2l-0.4-0.2l-0.4-0.2l-0.4-0.2l-0.4-0.2
	l-0.4-0.2l-0.4-0.3l-0.4-0.3l-0.4-0.3l-0.4-0.3l-0.3-0.3l-0.3-0.3l-0.3-0.3l-0.3-0.3l-0.3-0.3l-0.3-0.3l-0.3-0.3l-0.3-0.3l-0.3-0.3
	l-0.2-0.3l-0.2-0.3l-0.2-0.3l-0.2-0.3l-0.2-0.3l-0.2-0.3l-0.2-0.3l-0.2-0.4l-0.2-0.4l-0.1-0.4l-0.1-0.4l-0.1-0.4l-0.1-0.4l-0.1-0.4
	l-0.1-0.4l-0.1-0.4l-0.1-0.4l-0.1-0.4l0-0.4l0-0.4l0-0.4l0-0.4l0-0.2l0-0.2l0-0.2l0-0.2l0-0.2l0-0.2l0-0.2l0-0.2l0-0.2l0-0.2l0-0.2
	l0-0.2l0-0.2l0-0.2l0-0.2l0-0.2l0.1-0.2l0.1-0.2l0.1-0.2l0.1-0.2l0.1-0.2l0.1-0.2l0.1-0.2l0.1-0.2l0.1-0.2l0.1-0.2l0.1-0.2l0.1-0.2
	l0.1-0.2l0.1-0.2l0.1-0.2l0.1-0.2l0.1-0.2l0.1-0.2l0.1-0.2l0.1-0.2l0.1-0.2l0.1-0.2l0.1-0.2l0.1-0.2l0.1-0.2l0.1-0.2l0.1-0.2
	l0.1-0.2l0.1-0.2l0.1-0.2l0.1-0.2l0.1-0.2l0.1-0.2l0.1-0.2l0.1-0.2l0.2-0.2l0.2-0.2l0.2-0.1l0.2-0.1l0.2-0.1l0.2-0.1l0.2-0.1
	l0.2-0.1l0.2-0.1l0.2-0.1l0.2-0.1l0.2-0.1l0.2-0.1l0.2-0.1l0.2-0.1l0.2-0.1l0.2-0.1l0.2-0.1l0.2-0.1l0.2-0.1l0.2-0.1l0.2-0.1
	l0.2-0.1l0.2-0.1l0.2-0.1l0.2-0.1l0.2-0.1l0.2-0.1l0.2-0.1l0.2-0.1l0.2-0.1l0.2-0.1l0.2-0.1l0.2-0.1l0.2-0.1l0.2-0.1l0.2-0.1
	l0.2-0.1l0.2-0.1l0.2-0.1l0.2-0.1l0.2-0.1l0.2-0.1l0.2-0.1l0.2-0.1l0.2-0.1l0.2-0.1l0.2-0.1l0.2-0.1l0.2-0.1l0.2-0.1l0.2-0.1l0.2,0
	l0.2,0l0.2,0l0.2,0l0.2,0l0.2,0l0.2,0l0.2,0l0.2,0l0.2,0l0.2,0l0.2,0l0.2,0l0.2,0l0.3,0l0.3,0l0.3,0l0.3,0l0.3,0l0.3,0l0.3,0l0.3,0
	l0.3,0l0.3,0h0.3l0.4,0l0.3,0l0.3,0l0.3,0l0.3,0l0.3,0l0.3,0l0.3,0l0.3,0l0.3,0l0.3,0l0.3,0l0.3,0.1l0.3,0.1l0.3,0.1l0.3,0.1
	l0.3,0.1l0.3,0.1l0.3,0.1l0.3,0.1l0.3,0.1l0.3,0.1l0.3,0.1l0.3,0.1l0.3,0.1l0.3,0.1l0.3,0.1l0.3,0.1l0.3,0.1l0.3,0.1l0.3,0.1
	l0.3,0.1l0.3,0.1l0.3,0.1l0.3,0.1l0.3,0.1l0.3,0.1l0.3,0.1l0.3,0.2l0.3,0.2l0.3,0.2l0.3,0.2l0.2,0.2l0.2,0.2l0.2,0.2l0.2,0.2
	l0.2,0.2l0.2,0.2l0.2,0.2l0.2,0.2l0.2,0.2l0.2,0.2l0.2,0.2l0.2,0.2l0.2,0.2l0.2,0.2l0.2,0.2l0.2,0.2l0.2,0.2l0.2,0.2l0.2,0.2
	l0.2,0.2l0.2,0.2l0.9,1.2h-6l-0.3-0.3l-0.2-0.2l-0.2-0.1l-0.2-0.1l-0.2-0.1l-0.2-0.1l-0.2-0.1l-0.2-0.1l-0.2-0.1L187,128l-0.2-0.1
	l-0.2-0.1l-0.2-0.1l-0.2-0.1l-0.2-0.1l-0.2-0.1l-0.2-0.1l-0.2-0.1l-0.2-0.1l-0.2-0.1l-0.2-0.1l-0.2-0.1l-0.2-0.1l-0.2-0.1l-0.2-0.1
	l-0.2-0.1l-0.2-0.1l-0.2-0.1l-0.2-0.1l-0.2-0.1l-0.2-0.1l-0.2-0.1l-0.2-0.1l-0.2-0.1l-0.2-0.1l-0.2-0.1l-0.2-0.1l-0.2-0.1l-0.2-0.1
	l-0.2-0.1l-0.2-0.1l-0.2-0.1l-0.2,0l-0.2,0l-0.2,0l-0.2,0l-0.2,0l-0.2,0l-0.2,0l-0.2,0l-0.2,0l-0.2,0l-0.2,0l-0.2,0l-0.2,0l-0.2,0
	l-0.2,0l-0.2,0l-0.2,0l-0.2,0l-0.2,0l-0.2,0l-0.2,0l-0.2,0l-0.4,0l-0.4,0l-0.4,0l-0.4,0l-0.4,0l-0.4,0l-0.4,0l-0.4,0l-0.4,0.1
	l-0.4,0.1l-0.4,0.1l-0.4,0.1l-0.3,0.1l-0.3,0.1l-0.3,0.1l-0.3,0.1l-0.3,0.1l-0.3,0.1l-0.3,0.1l-0.3,0.1l-0.3,0.1l-0.3,0.1l-0.3,0.1
	l-0.3,0.2l-0.3,0.2l-0.3,0.2l-0.3,0.2l-0.3,0.2l-0.3,0.2l-0.3,0.2l-0.3,0.2l-0.3,0.2l-0.3,0.2l-0.3,0.2l-0.3,0.2l-0.2,0.2l-0.2,0.2
	l-0.2,0.2l-0.2,0.2l-0.2,0.2l-0.2,0.2l-0.2,0.2l-0.2,0.2l-0.2,0.2l-0.2,0.2l-0.2,0.2l-0.1,0.2l-0.1,0.2l-0.1,0.2l-0.1,0.2l-0.1,0.3
	l-0.1,0.3l-0.1,0.3l-0.1,0.3l-0.1,0.3l-0.1,0.3l-0.1,0.3l-0.1,0.3l0,0.3l0,0.3l0,0.3l0,0.3l0,0.3l0,0.3l0,0.3l0,0.3l0,0.3l0,0.3
	l0,0.3l0,0.3l0.1,0.3l0.1,0.3l0.1,0.3l0.1,0.3l0.1,0.3l0.1,0.3l0.1,0.3l0.1,0.3l0.1,0.3l0.1,0.3l0.1,0.3l0.1,0.3l0.2,0.2l0.2,0.2
	l0.2,0.2l0.2,0.2l0.2,0.2l0.2,0.2l0.2,0.2l0.2,0.2l0.2,0.2l0.2,0.2l0.2,0.2l0.2,0.2l0.3,0.2l0.3,0.2l0.3,0.2l0.3,0.2l0.3,0.2
	l0.3,0.2l0.3,0.2l0.3,0.2l0.3,0.2l0.3,0.2l0.3,0.2l0.3,0.1l0.3,0.1l0.3,0.1l0.3,0.1l0.3,0.1l0.3,0.1l0.3,0.1l0.3,0.1l0.3,0.1
	l0.3,0.1l0.4,0.1l0.4,0.1l0.4,0.1l0.4,0.1l0.4,0.1l0.4,0l0.4,0l0.4,0l0.4,0l0.4,0l0.4,0l0.4,0l0.4,0l0.3,0l0.3,0l0.3,0l0.3,0l0.3,0
	l0.3,0l0.3,0l0.3,0l0.3,0l0.3,0l0.3,0l0.3-0.1l0.3-0.1l0.3-0.1l0.3-0.1l0.3-0.1l0.3-0.1l0.3-0.1l0.3-0.1l0.3-0.1l0.3-0.1l0.3-0.1
	l0.3-0.1l0.3-0.1l0.3-0.1l0.3-0.1l0.3-0.1l0.3-0.1l0.3-0.1l0.3-0.1l0.3-0.1l0.3-0.1l0.2-0.2l0.2-0.2l0.2-0.2l0.2-0.2l0.2-0.2
	l0.2-0.2l0.2-0.2l0.2-0.2l0.2-0.2l0.2-0.2l0.2-0.2l0.2-0.2l0.2-0.2l0.2-0.2l0.2-0.2l0.2-0.2l0.2-0.2l0.2-0.2l0.1-0.2l0.1-0.2
	l0.1-0.2l0.1-0.2l0.1-0.2l0.1-0.2l0.1-0.2l0.1-0.2l0.1-0.2l0.1-0.2l0.1-0.1h-18.9V136h24.9l-0.1,1.1l0,0.4l-0.1,0.4L196.1,138.2z
	 M238.1,129.4l-0.2-0.2l-0.2-0.2l-0.2-0.1l-0.2-0.1l-0.2-0.1l-0.2-0.1l-0.2-0.1l-0.2-0.1l-0.2-0.1l-0.2-0.1l-0.2-0.1l-0.2-0.1
	l-0.2-0.1l-0.2-0.1l-0.2-0.1l-0.2-0.1l-0.2-0.1l-0.2-0.1l-0.2-0.1l-0.2-0.1l-0.2-0.1l-0.2-0.1l-0.2-0.1l-0.2-0.1l-0.2-0.1l-0.2-0.1
	l-0.2-0.1l-0.2-0.1l-0.2-0.1l-0.2-0.1l-0.2-0.1l-0.2-0.1l-0.2-0.1l-0.2-0.1l-0.2-0.1l-0.2-0.1l-0.2-0.1l-0.2-0.1l-0.2-0.1l-0.2-0.1
	l-0.2-0.1l-0.2-0.1l-0.2,0l-0.2,0l-0.2,0l-0.2,0l-0.2,0l-0.2,0l-0.2,0l-0.2,0l-0.2,0l-0.2,0l-0.2,0l-0.2,0l-0.2,0l-0.2,0l-0.2,0
	l-0.2,0l-0.2,0l-0.2,0l-0.2,0l-0.2,0l-0.2,0l-0.4,0l-0.4,0l-0.4,0l-0.4,0l-0.4,0l-0.4,0l-0.4,0l-0.4,0.1l-0.4,0.1l-0.4,0.1l-0.3,0.1
	l-0.3,0.1l-0.3,0.1l-0.3,0.1l-0.3,0.1l-0.3,0.1l-0.3,0.1l-0.3,0.1l-0.3,0.1l-0.3,0.1l-0.3,0.1l-0.3,0.1l-0.3,0.1l-0.3,0.2l-0.3,0.2
	l-0.3,0.2l-0.3,0.2l-0.3,0.2l-0.3,0.2l-0.3,0.2l-0.3,0.2l-0.3,0.2l-0.3,0.2l-0.3,0.2l-0.2,0.2l-0.2,0.2l-0.2,0.2l-0.2,0.2l-0.2,0.2
	l-0.2,0.2l-0.2,0.2l-0.2,0.2l-0.2,0.2l-0.2,0.2l-0.2,0.2l-0.2,0.2l-0.1,0.2l-0.1,0.2l-0.1,0.2l-0.1,0.2l-0.1,0.2l-0.1,0.3l-0.1,0.3
	l-0.1,0.3l-0.1,0.3l-0.1,0.3l-0.1,0.3l-0.1,0.3l0,0.3l0,0.3l0,0.3l0,0.3l0,0.3l0,0.3l0,0.3l0,0.3l0,0.3l0,0.3l0,0.3l0,0.3l0.1,0.3
	l0.1,0.3l0.1,0.3l0.1,0.3l0.1,0.3l0.1,0.3l0.1,0.3l0.1,0.3l0.1,0.3l0.1,0.3l0.1,0.3l0.1,0.3l0.2,0.2l0.2,0.2l0.2,0.2l0.2,0.2
	l0.2,0.2l0.2,0.2l0.2,0.2l0.2,0.2l0.2,0.2l0.2,0.2l0.2,0.2l0.2,0.2l0.3,0.2l0.3,0.2l0.3,0.2l0.3,0.2l0.3,0.2l0.3,0.2l0.3,0.2
	l0.3,0.2l0.3,0.2l0.3,0.2l0.3,0.2l0.3,0.1l0.3,0.1l0.3,0.1l0.3,0.1l0.3,0.1l0.3,0.1l0.3,0.1l0.3,0.1l0.3,0.1l0.3,0.1l0.3,0.1
	l0.3,0.1l0.3,0.1l0.4,0.1l0.4,0.1l0.4,0.1l0.4,0l0.4,0l0.4,0l0.4,0l0.4,0l0.4,0l0.4,0l0.2,0l0.2,0l0.2,0l0.2,0l0.2,0l0.2,0l0.2,0
	l0.2,0l0.2,0l0.2,0l0.2,0l0.2,0l0.2,0l0.2,0l0.2,0l0.2,0l0.2,0l0.2,0l0.2,0l0.2,0l0.2,0l0.2-0.1l0.2-0.1l0.2-0.1l0.2-0.1l0.2-0.1
	l0.2-0.1l0.2-0.1l0.2-0.1l0.2-0.1l0.2-0.1l0.2-0.1l0.2-0.1l0.2-0.1l0.2-0.1l0.2-0.1l0.2-0.1l0.2-0.1l0.2-0.1l0.2-0.1l0.2-0.1
	l0.2-0.1l0.2-0.1l0.2-0.1l0.2-0.1l0.2-0.1l0.2-0.1l0.2-0.1l0.2-0.1l0.2-0.1l0.2-0.1l0.2-0.1l0.2-0.1l0.2-0.1l0.2-0.1l0.2-0.1
	l0.2-0.1l0.2-0.1l0.1-0.1l0.1-0.1l0.1-0.1l0.1-0.1l0.1-0.1l0.3-0.3h5.9l-0.9,1.2L243,144l-0.2,0.2l-0.2,0.2l-0.2,0.2l-0.2,0.2
	l-0.2,0.2l-0.2,0.2l-0.2,0.2l-0.2,0.2l-0.2,0.2l-0.2,0.2l-0.2,0.2l-0.2,0.2l-0.2,0.2l-0.2,0.2l-0.2,0.2l-0.2,0.2l-0.2,0.2l-0.2,0.2
	l-0.2,0.2l-0.2,0.2l-0.2,0.2l-0.3,0.2l-0.3,0.2l-0.3,0.1l-0.3,0.1l-0.3,0.1l-0.3,0.1l-0.3,0.1l-0.3,0.1l-0.3,0.1l-0.3,0.1l-0.3,0.1
	l-0.3,0.1l-0.3,0.1l-0.3,0.1l-0.3,0.1l-0.3,0.1l-0.3,0.1l-0.3,0.1l-0.3,0.1l-0.3,0.1l-0.3,0.1l-0.3,0.1l-0.3,0.1l-0.3,0.1l-0.3,0.1
	l-0.3,0.1l-0.3,0.1l-0.3,0.1l-0.3,0l-0.3,0l-0.3,0l-0.3,0l-0.3,0l-0.3,0l-0.3,0l-0.3,0l-0.3,0l-0.3,0l-0.3,0l-0.3,0l-0.3,0l-0.5,0
	l-0.5,0l-0.5,0l-0.5,0l-0.5,0l-0.5,0l-0.5-0.1l-0.5-0.1l-0.5-0.1l-0.5-0.1l-0.5-0.1l-0.5-0.1l-0.5-0.1l-0.5-0.1l-0.5-0.1l-0.5-0.1
	l-0.4-0.1l-0.4-0.2l-0.4-0.2l-0.4-0.2l-0.4-0.2l-0.4-0.2l-0.4-0.2l-0.4-0.2l-0.4-0.2l-0.4-0.2l-0.4-0.2l-0.4-0.2l-0.4-0.2l-0.4-0.3
	l-0.4-0.3l-0.4-0.3l-0.4-0.3l-0.3-0.3l-0.3-0.3l-0.3-0.3l-0.3-0.3l-0.3-0.3l-0.3-0.3l-0.3-0.3l-0.3-0.3l-0.3-0.3l-0.2-0.3l-0.2-0.3
	l-0.2-0.3l-0.2-0.3l-0.2-0.3l-0.2-0.3l-0.2-0.4l-0.2-0.4l-0.2-0.4l-0.1-0.4l-0.1-0.4l-0.1-0.4l-0.1-0.4l-0.1-0.4l-0.1-0.4l-0.1-0.4
	l-0.1-0.4l-0.1-0.4l0-0.4l0-0.4l0-0.4l0-0.4l0-0.2l0-0.2l0-0.2l0-0.2l0-0.2l0-0.2l0-0.2l0-0.2l0-0.2l0-0.2l0-0.2l0-0.2l0-0.2l0-0.2
	l0-0.2l0-0.2l0.1-0.2l0.1-0.2l0.1-0.2l0.1-0.2l0.1-0.2l0.1-0.2l0.1-0.2l0.1-0.2l0.1-0.2l0.1-0.2l0.1-0.2l0.1-0.2l0.1-0.2l0.1-0.2
	l0.1-0.2l0.1-0.2l0.1-0.2l0.1-0.2l0.1-0.2l0.1-0.2l0.1-0.2l0.1-0.2l0.1-0.2l0.1-0.2l0.1-0.2l0.1-0.2l0.1-0.2l0.1-0.2l0.1-0.2
	l0.1-0.2l0.1-0.2l0.1-0.2l0.1-0.2l0.1-0.2l0.2-0.2l0.2-0.2l0.2-0.2l0.2-0.1l0.2-0.1l0.2-0.1l0.2-0.1l0.2-0.1l0.2-0.1l0.2-0.1
	l0.2-0.1l0.2-0.1l0.2-0.1l0.2-0.1l0.2-0.1l0.2-0.1l0.2-0.1l0.2-0.1l0.2-0.1l0.2-0.1l0.2-0.1l0.2-0.1l0.2-0.1l0.2-0.1l0.2-0.1
	l0.2-0.1l0.2-0.1l0.2-0.1l0.2-0.1l0.2-0.1l0.2-0.1l0.2-0.1l0.2-0.1l0.2-0.1l0.2-0.1l0.2-0.1l0.2-0.1l0.2-0.1l0.2-0.1l0.2-0.1
	l0.2-0.1l0.2-0.1l0.2-0.1l0.2-0.1l0.2-0.1l0.2-0.1l0.2-0.1l0.2-0.1l0.2-0.1l0.2-0.1l0.2-0.1l0.2-0.1l0.2-0.1l0.2-0.1l0.2,0l0.2,0
	l0.2,0l0.2,0l0.2,0l0.2,0l0.2,0l0.2,0l0.2,0l0.2,0l0.2,0l0.2,0l0.2,0l0.2,0l0.2,0l0.2,0l0.2,0l0.2,0l0.2,0l0.2,0l0.2,0l0.2,0l0.3,0
	h0.3l0.4,0l0.4,0l0.4,0l0.4,0l0.3,0l0.3,0l0.3,0l0.3,0l0.3,0l0.3,0l0.3,0l0.3,0l0.3,0.1l0.3,0.1l0.3,0.1l0.3,0.1l0.3,0.1l0.3,0.1
	l0.3,0.1l0.3,0.1l0.3,0.1l0.3,0.1l0.3,0.1l0.3,0.1l0.3,0.1l0.3,0.1l0.3,0.1l0.3,0.1l0.3,0.1l0.3,0.1l0.3,0.1l0.3,0.1l0.3,0.1
	l0.3,0.1l0.3,0.1l0.3,0.1l0.3,0.1l0.3,0.2l0.3,0.2l0.3,0.2l0.3,0.2l0.3,0.2l0.3,0.2l0.2,0.2l0.2,0.2l0.2,0.2l0.2,0.2l0.2,0.2
	l0.2,0.2l0.2,0.2l0.2,0.2l0.2,0.2l0.2,0.2l0.2,0.2l0.2,0.2l0.2,0.2l0.2,0.2l0.2,0.2l0.2,0.2l0.2,0.2l0.2,0.2l0.2,0.2l0.2,0.2
	l0.8,1.2h-5.9L238.1,129.4z"/>
<g>
	<defs>
		<rect id="SVGID_1_" width="268.7" height="187"/>
	</defs>
	<clipPath id="SVGID_2_">
		<use xlink:href="#SVGID_1_"  overflow="visible"/>
	</clipPath>
	<path clip-path="url(#SVGID_2_)" fill-rule="evenodd" clip-rule="evenodd" fill="#005EAA" d="M245,95.2h-6.2l-12.6-15.1l-5.5,4.6
		v10.5h-4.7V65.1h4.7v15l17.4-15h6.4l-14.9,12.4L245,95.2z M201.5,78.7c4,0.8,7.8,3.1,7.8,7.7c0,12.3-26.1,12.6-26.8,0.9h4.7
		c0,6.8,17.3,7.2,17.3-0.8c0-5.9-8.1-5.7-12.5-5.7v-3.4c4,0,10.7,0.5,10.7-5c0-3.8-4.9-4.3-7.6-4.3c-3.1,0-7,0.6-7.5,4.4h-4.7
		c1.2-8.9,15.3-9.6,21.2-5.7C210,70.6,207.6,77.3,201.5,78.7 M175,95.2h-4.5V69.6l-10.2,25.7h-4.2L146,69.6v25.7h-4.5V65.1h7.1
		l9.6,25.2l9.7-25.2h7.1V95.2z"/>
	<path clip-path="url(#SVGID_2_)" fill-rule="evenodd" clip-rule="evenodd" fill="#005EAA" d="M56.1,40.8l4.7-0.1l3.8,0.1l3.8,0.3
		l3.7,0.5l3.6,0.7l3.5,0.8l3.4,1l3.3,1.1l3.2,1.2l3.3,1.4l3.2,1.6l3,1.7l2.9,1.8l2.8,1.9l2.7,2l2.5,2.1l2.4,2.2l2.4,2.5l2.3,2.5
		l2.1,2.6l2,2.7l1.8,2.8l1.6,2.8l1.5,2.9l1.3,2.9l1.3,3.2l1.1,3.2l0.9,3.3l0.7,3.3l0.5,3.3l0.4,3.3l0.2,3.3l0,3.3l-0.2,3.6l-0.4,3.5
		l-0.5,3.4l-0.7,3.3l-0.9,3.2l-1,3.1l-1.1,3l-1.3,2.8l-1.6,3.1l-1.7,2.9l-1.8,2.8l-1.9,2.7l-2,2.5l-2.1,2.4l-2.2,2.2l-2.2,2.1
		l-2.6,2.3l-2.7,2.1l-2.8,1.9l-2.8,1.8l-2.8,1.6l-2.8,1.4l-2.9,1.3l-2.9,1.1l-3.5,1.2l-3.4,1l-3.4,0.8l-3.4,0.6l-3.3,0.4l-3.3,0.2
		l-3.2,0.1l-3.1-0.1l-4.1-0.3l-3.8-0.5l-3.6-0.6l-3.4-0.8l-3.1-0.9l-2.9-0.9l-2.7-1l-2.5-1l-1.8-0.8l-1.7-0.8l-1.6-0.8l-1.5-0.8
		l-1.4-0.8l-1.3-0.8l-1.2-0.8l-1.2-0.8l1.4,0.8l1.5,0.8l1.5,0.8l1.5,0.7l1.5,0.7l1.6,0.7l1.6,0.6l1.6,0.6l3,1l3.1,0.9l3.2,0.8
		l3.2,0.6l3.3,0.5l3.3,0.4l3.4,0.2l3.4,0.1l3.4-0.1l3.3-0.2l3.3-0.4l3.2-0.5l3.1-0.7l3.1-0.8l3-1l2.9-1.1l2.9-1.3l2.8-1.4l2.7-1.5
		l2.6-1.6l2.5-1.7l2.4-1.9l2.4-2l2.2-2.1l2.1-2.2l2-2.3l1.9-2.3l1.8-2.4l1.7-2.5l1.6-2.6l1.4-2.7l1.3-2.7l1.2-2.8l1-2.9l0.9-2.9
		l0.7-3l0.6-3l0.4-3.1l0.3-3.1l0.1-3.1l-0.1-3.1l-0.3-3.1l-0.4-3.1l-0.6-3l-0.7-3l-0.9-2.9l-1-2.8l-1.2-2.8l-1.3-2.7l-1.4-2.6
		l-1.6-2.6l-1.7-2.5l-1.8-2.4l-1.9-2.3l-2.1-2.2l-2.2-2.1l-2.3-2l-2.4-1.9l-2.5-1.8l-2.6-1.7l-2.7-1.6L92.1,55l-2.8-1.4l-2.9-1.2
		l-5.8-2L78.4,49l-2.3-1.3l-2.3-1.2l-2.4-1.1l-2.5-1l-2.6-0.9l-2.7-0.9l-2.8-0.8L56.1,40.8z M14.3,153.7l6.8,6.2
		c1.9,1.4,3.7,2.6,5.7,3.9L35,168l2.5,1.1l2.7,1l3,1l3.2,0.9l3.4,0.8l3.7,0.7l3.9,0.5l4.2,0.3l4.8,0.1l3.3-0.1l3.4-0.3l3.4-0.5
		l3.5-0.7l3.5-0.8c1.8-0.5,3.6-1.1,5.4-1.7l2.9-1.1l2.9-1.3l2.9-1.4l2.9-1.6l2.9-1.8l2.8-2l2.8-2.1l2.7-2.3l2.3-2.2
		c1.1-1.1,2.2-2.3,3.3-3.5l2.1-2.5l2-2.7l1.9-2.8l1.8-2.9c0.9-1.6,1.7-3.1,2.5-4.7l1.3-2.9l1.2-3l1.1-3.2l0.9-3.3l0.8-3.4l0.6-3.5
		l0.4-3.6l0.2-3.7l0-3.4l-0.2-3.4l-0.3-3.4l-0.5-3.4l-0.7-3.4l-0.9-3.4l-1.1-3.4l-1.3-3.3l-1.4-3l-1.5-3l-1.7-2.9l-1.9-2.9l-2-2.8
		l-2.2-2.8l-2.3-2.7l-2.5-2.6l-2.5-2.3c-1.3-1.1-2.6-2.2-4-3.3l-2.8-2.1l-3-2l-3.1-1.9l-3.2-1.7c-1.7-0.8-3.4-1.6-5.1-2.4L87,41.9
		l-3.4-1.2l-3.5-1l-3.6-0.9l-3.7-0.7l-3.8-0.5l-3.9-0.4l-4-0.2l-2.7,0L55.4,37l-2.7,0.1l-2.7,0.2l-2.7,0.3L44.8,38l-2.6,0.4L39.5,39
		l6.8,0.4l2-0.3l1.5-0.2l1.7-0.2l1.8-0.1l2-0.1l2.1-0.1c1.2,0,2.3,0,3.4,0l3.2,0.1l3.3,0.3l3.5,0.4l3.6,0.6l3.7,0.8l3.8,1l3.9,1.3
		l3.9,1.5l3,1.3l3,1.5l3,1.7l3,1.8l2.9,2l2.9,2.2l2.8,2.3l2.7,2.5l2.3,2.4l2.2,2.5l2.1,2.6l2,2.7l1.9,2.9l1.7,3l1.6,3.1l1.5,3.2
		l1.2,3.1l1.1,3.2l0.9,3.2l0.7,3.3l0.6,3.4l0.4,3.5l0.2,3.5v3.6l-0.2,3.5l-0.4,3.4l-0.5,3.4l-0.7,3.3l-0.9,3.3l-1.1,3.2l-1.2,3.1
		l-1.4,3.1l-1.5,3l-1.7,2.9l-1.8,2.8l-1.9,2.7l-2.1,2.6l-2.2,2.5l-2.3,2.4l-2.4,2.2l-2.5,2.2l-2.6,2l-2.7,1.9l-2.8,1.8l-2.9,1.6
		l-3,1.5l-3,1.3l-3.1,1.2l-3.3,1.1l-3.3,0.9l-3.4,0.8l-3.4,0.6l-3.4,0.4l-3.4,0.2l-3.4,0.1l-3.4-0.1l-3.7-0.3l-3.6-0.4l-3.5-0.6
		l-3.4-0.7l-3.2-0.9l-3.1-1l-3-1.1l-2.8-1.2l-2-0.9l-1.9-1l-1.9-1l-1.8-1.1l-1.7-1.1l-1.6-1.1l-1.5-1.1l-1.5-1.1
		C21.2,158.7,14.7,153.7,14.3,153.7"/>
	<path clip-path="url(#SVGID_2_)" fill-rule="evenodd" clip-rule="evenodd" fill="#005EAA" d="M251.2,107l-220.7,3.3l199.1,4.8
		L251.2,107z M20.1,110.1l248.7-10.6l-9.9,4.7L28,110.3L20.1,110.1z"/>
	<path clip-path="url(#SVGID_2_)" fill-rule="evenodd" clip-rule="evenodd" fill="#005EAA" d="M25.5,63.3l16.3,2.9l8.6,0.8l11.2,0.4
		c5.3-0.3,10.8-0.3,15.9-0.9c7.9-0.9,15.7-2.7,23.4-4.7l7.8-2.7c3-1.2,5.9-2.6,8.8-4l5.5-3.2l2.8-1.8l1.7-1.2l1.7-1.3l1.6-1.3
		l1.4-1.3l1.3-1.4c0.6-0.7,1.2-1.4,1.8-2.1l-0.1,0.4l-0.1,0.4l-0.1,0.4c0,0.2-0.1,0.4-0.1,0.6l-0.1,0.6c-0.1,0.3-0.1,0.5-0.2,0.8
		l-2,2l-1.1,1l-1.4,1.1l-1.6,1.2l-1.9,1.3c-1.1,0.7-2.2,1.4-3.3,2.1l-3.7,2.1l-4.4,2.2l-5.1,2.2l-5.8,2.1L98.1,64l-7,1.6l-7.4,1.3
		l-7.8,0.9l-7.4,0.5l-7.1,0.1c-11.1-0.3-21.9-1.5-32.8-3.5L25.5,63.3z"/>
	<path clip-path="url(#SVGID_2_)" fill-rule="evenodd" clip-rule="evenodd" fill="#005EAA" d="M133.2,49.4l-1,0.9l-1.1,0.8l-1.1,0.8
		l-1.1,0.8l-1.2,0.8l-1.2,0.8l-1.2,0.7l-1.2,0.7l-5.7,3l-6,2.6l-6.2,2.2l-6.2,1.8l-6.2,1.4l-6.1,1.1c-3.9,0.5-7.9,1-11.8,1.3
		l-9.7,0.3l-8.3-0.2l-7.1-0.5c-7.1-0.8-14.1-1.9-21.2-3.5l4.9,2.1l5.2,1.8l5.5,1.6l5.7,1.3l6,1l6.2,0.8l6.3,0.5l6.5,0.1l7.1-0.2
		l6.9-0.6l6.7-0.9l6.5-1.3c3.1-0.8,6.1-1.6,9.1-2.5l5.7-2.1c2.6-1.1,5.2-2.3,7.8-3.6l0.3-0.5l2.7-4.1l1-1.7l0.9-1.7l0.8-1.7l0.8-1.7
		C132.6,51.1,132.9,50.3,133.2,49.4"/>
	<path clip-path="url(#SVGID_2_)" fill-rule="evenodd" clip-rule="evenodd" fill="#005EAA" d="M144.4,171.6l-1.2-0.8l-1.3-0.7
		l-1.3-0.7l-1.4-0.7l-1.4-0.7l-1.4-0.7l-1.5-0.7l-1.5-0.6l-7-2.7l-7.3-2.3l-7.5-1.9l-7.6-1.6l-7.6-1.3l-7.5-1
		c-4.8-0.5-9.6-0.9-14.4-1.1l-11.8-0.3L52.7,154l-8.7,0.5c-8.7,0.7-17.2,1.7-25.8,3.1l6-1.8l6.3-1.6l6.7-1.4l7-1.2l7.3-0.9l7.5-0.7
		l7.7-0.4l7.9-0.1l8.7,0.2l8.5,0.5l8.2,0.8l7.9,1.1c3.7,0.7,7.4,1.4,11.1,2.2l6.9,1.8c3.2,1,6.4,2.1,9.5,3.2l0.3,0.5l3.2,3.7
		l1.2,1.5l1.1,1.5l1,1.5l0.9,1.5C143.6,170.1,144,170.8,144.4,171.6 M13.3,159.3l19.8-2.5l10.5-0.7l13.7-0.3l17.3,0.6l10.4,1.2
		l10.1,1.4l9.8,1.7l9.8,2.4c3.6,1.1,7.1,2.3,10.7,3.5l6.6,2.8l3.4,1.6l2.1,1.1l2,1.1l1.9,1.2l1.8,1.2l1.6,1.2
		c0.7,0.6,1.4,1.2,2.1,1.8l-0.1-0.3l-0.1-0.3l-0.1-0.3c0-0.2-0.1-0.3-0.1-0.5l-0.2-0.5c-0.1-0.2-0.1-0.5-0.2-0.7l-2.4-1.8l-1.4-0.9
		l-1.7-1l-1.9-1.1l-2.3-1.2c-1.3-0.6-2.7-1.3-4-1.9l-4.5-1.9l-5.4-2l-6.2-1.9l-7.1-1.8l-7.8-1.7l-8.5-1.4l-9.1-1.1l-9.5-0.8l-9-0.4
		l-8.6-0.1c-13.5,0.2-26.6,1.3-40,3.1L13.3,159.3z"/>
	<path clip-path="url(#SVGID_2_)" fill-rule="evenodd" clip-rule="evenodd" fill="#005EAA" d="M62.4,182.6l0.7-1.5l0.6-1.6l0.6-1.6
		l0.6-1.6l0.5-1.7l0.5-1.7l0.5-1.7l0.5-1.8l1.8-8.1L70,153l0.8-8.5l0.4-8.5l0.1-8.4l-0.3-8.3c-0.3-5.3-0.8-10.5-1.3-15.8L68,90.6
		l-2-10.9l-2.1-9.2c-2.4-9.2-5.1-18.2-8.3-27.1l3.2,6l3,6.5l2.8,6.9l2.6,7.3l2.4,7.6l2.1,7.9l1.9,8.2l1.6,8.5l1.4,9.4l1,9.2l0.5,9
		l0.1,8.7c-0.1,4.2-0.3,8.3-0.5,12.5l-0.8,7.9c-0.6,3.7-1.2,7.3-1.9,11l-0.5,0.5l-3.6,4.3l-1.5,1.6l-1.5,1.5l-1.5,1.4l-1.5,1.3
		C64,181.4,63.2,182,62.4,182.6 M52.6,38.4l6.6,20.8l2.8,11.2l2.9,14.7l1.2,9.4l1.6,16l0.4,16c-0.6,11.7-1,22.9-3.2,34.5l-2,7.8
		l-1.2,4l-0.9,2.5l-0.9,2.4l-1,2.3l-1,2.2l-1.1,2c-0.6,0.9-1.1,1.8-1.7,2.7l0.4-0.2l0.4-0.2l0.4-0.2c0.2-0.1,0.4-0.2,0.6-0.3
		l0.6-0.3c0.3-0.1,0.5-0.3,0.8-0.4l1.6-3l0.8-1.7l0.9-2l0.9-2.3l0.9-2.7c0.5-1.6,1-3.2,1.4-4.8l1.4-5.3l1.3-6.2l1.1-7.2l0.8-8
		l0.5-8.8l0.1-9.5l-0.4-10l-0.8-10.4l-1.2-9.8l-1.5-9.3C63,70.1,59.3,56.1,54.8,42.2L52.6,38.4z"/>
	<path clip-path="url(#SVGID_2_)" fill-rule="evenodd" clip-rule="evenodd" fill="#FFED00" d="M8.3,89.8c1.5-0.6,2.4,0.4,4,2.1
		c1.5,1.7,2.4,2.7,4.5,7.2c2.1,4.5,3,11.9,1.6,12.6c-1.4,0.7-2.4-0.4-4-2.1c-1.6-1.7-2.6-2.8-4.7-7.3C7.6,97.8,6.8,90.5,8.3,89.8
		 M5.1,102L5.1,102c-1.5,0.7-0.4,8.1,1.9,12.7c2.3,4.6,3.3,5.7,4.9,7.4c1.6,1.7,2.6,2.8,4,2.1c1.4-0.7,0.1-8.2-2.1-12.7
		c-2.2-4.6-3.1-5.6-4.7-7.3C7.6,102.4,6.6,101.3,5.1,102 M2.5,114.3c1.4-0.7,2.4,0.4,4,2.1c1.6,1.7,2.6,2.8,5,7.4
		c2.4,4.6,4,12.2,2.6,12.9c-1.3,0.7-2.4-0.4-4.1-2.1c-1.7-1.7-2.8-2.8-5.2-7.5C2.5,122.5,1.1,115,2.5,114.3 M0.5,126.9L0.5,126.9
		c-1.4,0.7,0.3,8.3,2.9,13c2.6,4.7,3.7,5.8,5.5,7.6c1.8,1.8,2.9,2.8,4.1,2.1c1.3-0.7-0.7-8.4-3.2-13.1c-2.6-4.7-3.6-5.7-5.2-7.5
		C2.9,127.3,1.8,126.2,0.5,126.9 M11.8,77.8L11.8,77.8c-1.5,0.6-1,7.9,1,12.4c2,4.5,2.9,5.6,4.5,7.3c1.5,1.7,2.5,2.7,4,2.1
		c1.5-0.7,0.7-7.9-1.2-12.4c-1.9-4.5-2.8-5.5-4.3-7.2C14.3,78.2,13.4,77.2,11.8,77.8 M45.1,88.2c-0.9-1.4-2.2-1-4.4-0.5
		c-2.2,0.5-3.6,0.9-7.6,3.5c-4,2.6-8.3,8.3-7.3,9.8c0.9,1.4,2.3,1.1,4.4,0.5c2.1-0.5,3.4-0.9,7.4-3.5C41.5,95.3,46,89.6,45.1,88.2
		 M41.5,100.2L41.5,100.2c0.9,1.4-3.3,7.2-7.1,9.8c-3.8,2.7-5.1,3.1-7.2,3.6c-2.1,0.6-3.4,0.9-4.4-0.5c-1-1.4,3.1-7.2,6.9-9.9
		c3.9-2.7,5.2-3,7.4-3.5C39.3,99.2,40.6,98.8,41.5,100.2 M38.4,112.4c-1-1.4-2.3-1.1-4.4-0.5c-2.1,0.6-3.4,0.9-7.1,3.6
		c-3.7,2.7-7.5,8.6-6.4,10.1c1,1.4,2.3,1.1,4.3,0.5c2-0.6,3.3-1,6.9-3.7C35.4,119.7,39.4,113.8,38.4,112.4 M35.8,124.7L35.8,124.7
		c1,1.4-2.6,7.4-6.2,10.1c-3.5,2.8-4.7,3.2-6.7,3.8c-2,0.6-3.2,1-4.3-0.5c-1.1-1.4,2.3-7.5,5.9-10.2c3.5-2.8,4.9-3.1,6.9-3.7
		C33.5,123.7,34.8,123.3,35.8,124.7 M33.8,137.3c-1.1-1.4-2.3-1.1-4.3-0.5c-2,0.6-3.2,1-6.6,3.8c-3.4,2.8-6.4,8.9-5.3,10.4
		c1.1,1.5,2.3,1.1,4.2,0.5c1.9-0.6,3-1,6.4-3.8C31.5,144.7,34.8,138.7,33.8,137.3 M67,3.3c-0.5-0.2-1-0.3-1.6-0.5
		c-7.2,10.8-13.9,21.7-19.5,33c-5.6,11.3-10.1,22.9-14.5,34.6c-2.1,0.5-4.9,4.6-6.7,9.9c-1.7,5.4-1.7,10.3-0.3,11.9
		c-2.9,10.8-5.6,21.6-7.4,32.7c-1.8,11.1-2.5,22.4-3.1,33.9l1.4,1.2c0.6-11.5,1.5-23.4,3.3-34.5c1.8-11.1,4.5-21.9,7.4-32.7
		c2-0.5,4.7-4.6,6.3-10c1.7-5.3,2-10.2,0.6-11.8c4.3-11.7,8.9-23.3,14.4-34.6C53.1,25,59.9,14.1,67,3.3 M58.1,0.5L58.1,0.5
		c-8.5,13-16.4,26.1-22.7,39.7C29.1,53.8,24.2,68,19.5,82.1c-0.3-0.8-0.7-1.5-1-2.3C23.2,66,28,52.2,34.2,38.9
		c6.2-13.4,14-26.2,22.3-38.9C57.1,0.2,57.6,0.3,58.1,0.5 M62.6,1.9L62.6,1.9c-7.1,10.8-13.9,21.7-19.5,33
		C37.5,46.1,33,57.8,28.6,69.5c-0.8,0.6-1.6,1.2-2.4,1.8c4.4-12.1,9-24.1,14.7-35.8c5.7-11.7,12.7-23,20.1-34.1
		C61.5,1.6,62.1,1.7,62.6,1.9 M71.5,4.7L71.5,4.7c-7.4,11.2-14.3,22.4-20,34.1c-5.7,11.6-10.3,23.7-14.7,35.8
		c-0.2-0.9-0.5-1.9-0.7-2.8c4.3-11.7,8.9-23.3,14.4-34.6C56,25.9,62.8,15,69.9,4.2C70.5,4.3,71,4.5,71.5,4.7 M76,6.1L76,6.1
		C67.7,18.8,59.9,31.6,53.6,45c-6.2,13.3-11.1,27.1-15.7,40.9c-0.7,0.5-1.4,0.9-2.1,1.3c4.7-14.1,9.6-28.3,15.9-41.9
		C58,31.6,65.9,18.5,74.4,5.6C74.9,5.7,75.4,5.9,76,6.1"/>
</g>
</svg>
