<svg xmlns="http://www.w3.org/2000/svg" viewBox="0 0 428.69 103.92"><defs><style>.cls-1{fill:#7d7773;}.cls-2{fill:#ff6d2d;}</style></defs><title>logo</title><g id="Layer_2" data-name="Layer 2"><g id="Слой_1" data-name="Слой 1"><path class="cls-1" d="M14.69,99.73,13,95.36H4.71L3,99.73H0L7.31,82H10.6l7.25,17.75ZM8.93,84.52h0L5.56,93.07h6.58Z"/><path class="cls-1" d="M31,99.73v-8h-9.4v8H18.7V82h2.92v7.35H31V82h2.92V99.73Z"/><path class="cls-1" d="M43.86,84.37V99.73H41V84.37H34.86V82H50v2.39Z"/><path class="cls-1" d="M63.22,99.73V86h-.08l-9,13.69H50.9V82h2.92V95.71h.07L63,82h3.14V99.73Z"/><path class="cls-1" d="M80.2,99.73l-8.4-9.18h-.08v9.18H68.81V82h2.91v8.37h.08L79.53,82h3.69l-8.06,8.3L84,99.73Z"/><path class="cls-1" d="M90.4,92.75H87.73v7H84.82V82h5.31c3.86,0,6.4,1.44,6.4,5.38C96.53,91.1,93.89,92.75,90.4,92.75Zm-.27-8.43H87.71V90.4h2.34c1.55,0,3.52-.67,3.52-3.06C93.57,85.19,91.8,84.32,90.13,84.32Z"/><path class="cls-1" d="M110.33,99.73V86h-.08l-9,13.69H98V82h2.92V95.71H101L110.1,82h3.14V99.73Z"/><path class="cls-1" d="M119.18,100a12.14,12.14,0,0,1-4.09-.78V96.61a10.4,10.4,0,0,0,4.17,1c1.92,0,3.84-.82,3.84-2.89,0-2.52-2.07-3.07-4-3.07H118V89.46h1c1.67,0,3.92-.85,3.92-2.95,0-1.89-1.43-2.46-3.15-2.46a9.76,9.76,0,0,0-3.89.89V82.47a12.25,12.25,0,0,1,4.14-.79c3.14,0,5.84,1.19,5.84,4.61a4,4,0,0,1-3.42,4.09v.07a4,4,0,0,1,3.67,4.27C126.09,98.48,122.82,100,119.18,100Z"/><path class="cls-1" d="M140.63,99.73V86h-.08l-9,13.69h-3.24V82h2.92V95.71h.07L140.4,82h3.14V99.73Z"/><path class="cls-1" d="M155.32,100c-5.39,0-9.85-3.32-9.85-9.18,0-5.63,4.31-9.17,9.82-9.17a14.34,14.34,0,0,1,4.54.74v2.77a9.72,9.72,0,0,0-4.39-1.14,6.81,6.81,0,1,0,0,13.61,11.69,11.69,0,0,0,4.41-1V99.3A14,14,0,0,1,155.32,100Z"/><path class="cls-1" d="M173.84,99.73v-8h-9.4v8h-2.91V82h2.91v7.35h9.4V82h2.92V99.73Z"/><path class="cls-1" d="M184.87,99.73h-5.49V82h2.92v6.78h3c3.51,0,6.06,1.77,6.06,5.46C191.33,98.13,188.88,99.73,184.87,99.73Zm0-8.6H182.3v6.25h2.57c1.67,0,3.46-.94,3.46-3.09C188.33,91.9,186.61,91.13,184.84,91.13Zm9.15,8.6V82h2.92V99.73Z"/><path class="cls-1" d="M199.53,99.73V82h11v2.39h-8.08v5h7.08v2.41h-7.08v5.56h8.2v2.4Z"/><path class="cls-2" d="M230.23,99.73l-8.4-9.18h-.08v9.18h-2.91V82h2.91v8.37h.08L229.56,82h3.69l-8.06,8.3L234,99.73Z"/><path class="cls-2" d="M242.45,100c-5.49,0-9.33-3.74-9.33-9.18a8.86,8.86,0,0,1,9.3-9.17c5.71,0,9.33,3.94,9.33,9.17C251.75,96.24,248.11,100,242.45,100Zm0-16c-4,0-6.28,3.26-6.28,6.8s2.32,6.81,6.25,6.81c3.1,0,6.29-2.27,6.29-6.81C248.71,87.34,246.49,84.05,242.45,84.05Z"/><path class="cls-2" d="M268.26,99.73V85.34h-.08L262.4,92.1l-5.76-6.76h-.07V99.73h-2.92V82h3.41l5.37,6.4,5.33-6.4h3.42V99.73Z"/><path class="cls-2" d="M288.41,99.73V85.34h-.08l-5.78,6.76-5.76-6.76h-.07V99.73H273.8V82h3.41l5.37,6.4,5.33-6.4h3.42V99.73Z"/><path class="cls-2" d="M299.14,99.73h-3.07l2.57-4.91L292.25,82h3.32l4.64,9.84L305,82h3.19Z"/><path class="cls-2" d="M321.4,99.73v-8H312v8h-2.91V82H312v7.35h9.4V82h2.92V99.73Z"/><path class="cls-2" d="M339.26,99.73V86h-.08l-9,13.69h-3.24V82h2.92V95.71h.07L339,82h3.14V99.73Z"/><path class="cls-2" d="M356.24,99.73l-8.4-9.18h-.07v9.18h-2.92V82h2.92v8.37h.07L355.57,82h3.69l-8.05,8.3L360,99.73Z"/><path class="cls-2" d="M373.73,99.73,372,95.36h-8.28l-1.69,4.37h-3L366.34,82h3.3l7.25,17.75ZM368,84.52h-.05l-3.32,8.55h6.58Z"/><path class="cls-2" d="M391.68,103.92V99.73H377.74V82h2.92V97.33h9.08V82h2.91V97.33h1.77v6.59Z"/><path class="cls-2" d="M407.92,99.73V86h-.08l-9,13.69H395.6V82h2.92V95.71h.07L407.69,82h3.14V99.73Z"/><path class="cls-2" d="M425.77,99.73V86h-.07l-9,13.69h-3.24V82h2.91V95.71h.08L425.55,82h3.14V99.73Z"/><path class="cls-2" d="M176.24,20.43A32.2,32.2,0,0,1,194.06,2.57,34.72,34.72,0,0,1,207.48,0,36.14,36.14,0,0,1,221,2.33a29.07,29.07,0,0,1,9.9,6.47l-4.58,4.58a23.71,23.71,0,0,0-8.06-5.55,27.47,27.47,0,0,0-10.72-2,26.74,26.74,0,0,0-11.23,2.29,25.51,25.51,0,0,0-8.47,6.18,27.51,27.51,0,0,0-5.36,9,31.93,31.93,0,0,0,0,21.59,27.07,27.07,0,0,0,5.36,9A25.66,25.66,0,0,0,196.35,60a26.58,26.58,0,0,0,11.23,2.29,40.27,40.27,0,0,0,10.08-1.19,26,26,0,0,0,7.42-3V38.39H210V32.53h21.71v29.3a41.74,41.74,0,0,1-11.45,4.78,51.46,51.46,0,0,1-12.74,1.56,35.51,35.51,0,0,1-13.56-2.56A31.76,31.76,0,0,1,176.2,47.74a35.93,35.93,0,0,1-2.52-13.65A35.58,35.58,0,0,1,176.24,20.43Z"/><path class="cls-2" d="M60.15,36.19h11L89.1,66.52h8.07l-19-30.88A22.52,22.52,0,0,0,84.8,34,16.56,16.56,0,0,0,90,30.56,15.95,15.95,0,0,0,94.79,19a17.91,17.91,0,0,0-1.65-8.07,14.14,14.14,0,0,0-4.63-5.36,20,20,0,0,0-7.06-3,40.25,40.25,0,0,0-8.84-.92h-19V66.52h6.59Zm0-28.86H71.88A32.89,32.89,0,0,1,78.57,8a15.08,15.08,0,0,1,5.13,2A9.83,9.83,0,0,1,87,13.56,11.3,11.3,0,0,1,88.19,19q0,5.78-4.31,8.66T71.61,30.51H60.15Z"/><path class="cls-2" d="M43.61,26.62A17.11,17.11,0,0,0,45.22,19a17.64,17.64,0,0,0-1.56-7.65,14.49,14.49,0,0,0-4.44-5.41A20.09,20.09,0,0,0,32.3,2.7a35.64,35.64,0,0,0-9-1.05H5V66.52h6.6V36.38H23.13a34.8,34.8,0,0,0,9-1.1,20.38,20.38,0,0,0,7-3.26A14.71,14.71,0,0,0,43.61,26.62Zm-9,1.14q-4,3-11.82,3H11.59V7.33H22.77q7.5,0,11.68,2.8T38.62,19Q38.62,24.75,34.59,27.76Z"/><path class="cls-2" d="M275.2,34a16.79,16.79,0,0,0,5.22-3.43,16.21,16.21,0,0,0,3.48-5.09,15.94,15.94,0,0,0,1.28-6.5,17.91,17.91,0,0,0-1.65-8.07,14.11,14.11,0,0,0-4.62-5.36,20,20,0,0,0-7.06-3A40.25,40.25,0,0,0,263,1.65H244V66.52h6.6V36.19h11L279.5,66.52h8.06l-19-30.88A22.52,22.52,0,0,0,275.2,34Zm-24.65-3.48V7.33h11.72A32.92,32.92,0,0,1,269,8a15.08,15.08,0,0,1,5.13,2,9.83,9.83,0,0,1,3.3,3.57A11.3,11.3,0,0,1,278.59,19q0,5.78-4.31,8.66T262,30.51Z"/><path class="cls-1" d="M168,34.09a35.56,35.56,0,0,1-2.57,13.65,32.26,32.26,0,0,1-17.82,17.87,36.48,36.48,0,0,1-26.85,0,32.26,32.26,0,0,1-17.82-17.87,35.56,35.56,0,0,1-2.57-13.65,35.58,35.58,0,0,1,2.57-13.66A32.2,32.2,0,0,1,120.76,2.57a36.35,36.35,0,0,1,26.85,0,32.2,32.2,0,0,1,17.82,17.86A35.58,35.58,0,0,1,168,34.09Zm-7,0a31.8,31.8,0,0,0-1.83-10.79,27.22,27.22,0,0,0-5.31-9,25.65,25.65,0,0,0-8.48-6.18,28.66,28.66,0,0,0-22.45,0,25.51,25.51,0,0,0-8.47,6.18,26.74,26.74,0,0,0-5.32,9,32.75,32.75,0,0,0,0,21.59,26.33,26.33,0,0,0,5.32,9A25.66,25.66,0,0,0,123,60a28.66,28.66,0,0,0,22.45,0,25.81,25.81,0,0,0,8.48-6.13,26.79,26.79,0,0,0,5.31-9A31.9,31.9,0,0,0,161,34.13Z"/><path class="cls-1" d="M300.85,60.66h34.73v5.86H294.25V1.65h40.23V7.51H300.85V29.78h31.43v5.86H300.85Z"/><path class="cls-1" d="M375.34,12.1a15.84,15.84,0,0,0-5.4-4.73,16.67,16.67,0,0,0-8-1.78,17,17,0,0,0-4.86.73,14,14,0,0,0-4.49,2.25,11.5,11.5,0,0,0-3.25,3.8,11.17,11.17,0,0,0-1.24,5.41,9.94,9.94,0,0,0,1.19,5.13,11.18,11.18,0,0,0,3.15,3.43A18.09,18.09,0,0,0,357,28.68c1.67.61,3.43,1.22,5.25,1.83,2.26.74,4.52,1.53,6.81,2.38a24.58,24.58,0,0,1,6.17,3.35,16.08,16.08,0,0,1,4.47,5.22,16.51,16.51,0,0,1,1.74,8,17.2,17.2,0,0,1-6.66,14.2A19.91,19.91,0,0,1,368,67.07a27.58,27.58,0,0,1-7.65,1.1,29.89,29.89,0,0,1-5.87-.59,27,27,0,0,1-5.59-1.79,23.27,23.27,0,0,1-4.95-3,22.71,22.71,0,0,1-4-4.22l5.69-4.22a17.25,17.25,0,0,0,5.91,5.82,16.68,16.68,0,0,0,8.93,2.34,17.27,17.27,0,0,0,5-.78,14.34,14.34,0,0,0,4.63-2.38,13.13,13.13,0,0,0,3.38-3.94,10.82,10.82,0,0,0,1.34-5.45,10.9,10.9,0,0,0-1.34-5.64,11.91,11.91,0,0,0-3.52-3.76,22.19,22.19,0,0,0-5-2.52q-2.83-1-6-2c-2.14-.67-4.24-1.43-6.32-2.29A21.48,21.48,0,0,1,347,30.38a15.68,15.68,0,0,1-4-5.09,16.6,16.6,0,0,1-1.5-7.42,16.45,16.45,0,0,1,1.87-8.07,17.08,17.08,0,0,1,4.91-5.59A20.53,20.53,0,0,1,355,1a27.36,27.36,0,0,1,7.24-1,24.92,24.92,0,0,1,11.27,2.34,19.31,19.31,0,0,1,7.06,5.54Z"/><path class="cls-1" d="M422.44,12.1A16,16,0,0,0,417,7.37a16.68,16.68,0,0,0-8-1.78,17,17,0,0,0-4.86.73,14.09,14.09,0,0,0-4.48,2.25,11.53,11.53,0,0,0-3.26,3.8,11.28,11.28,0,0,0-1.23,5.41,10,10,0,0,0,1.18,5.13,11.44,11.44,0,0,0,3.15,3.43A18.27,18.27,0,0,0,404,28.68q2.52.91,5.26,1.83,3.38,1.11,6.8,2.38a24.24,24.24,0,0,1,6.17,3.35,16.11,16.11,0,0,1,4.48,5.22,16.51,16.51,0,0,1,1.74,8,17.84,17.84,0,0,1-1.85,8.38,17.62,17.62,0,0,1-4.82,5.82,19.82,19.82,0,0,1-6.76,3.39,27.48,27.48,0,0,1-7.65,1.1,29.87,29.87,0,0,1-5.86-.59A27,27,0,0,1,396,65.79a23.27,23.27,0,0,1-4.95-3,22.08,22.08,0,0,1-4-4.22l5.68-4.22a17.34,17.34,0,0,0,5.91,5.82,16.74,16.74,0,0,0,8.94,2.34,17.37,17.37,0,0,0,5-.78,14.19,14.19,0,0,0,4.62-2.38,13.16,13.16,0,0,0,3.39-3.94,10.81,10.81,0,0,0,1.33-5.45,10.9,10.9,0,0,0-1.33-5.64A11.91,11.91,0,0,0,417,40.54,22.39,22.39,0,0,0,412,38c-1.9-.67-3.88-1.34-6-2s-4.25-1.43-6.32-2.29a21.32,21.32,0,0,1-5.59-3.34,15.68,15.68,0,0,1-4-5.09,16.46,16.46,0,0,1-1.51-7.42,16.35,16.35,0,0,1,1.88-8.07,17.05,17.05,0,0,1,4.9-5.59A20.68,20.68,0,0,1,402.1,1a27.28,27.28,0,0,1,7.23-1,25,25,0,0,1,11.28,2.34,19.27,19.27,0,0,1,7.05,5.54Z"/></g></g></svg>