<?xml version="1.0" encoding="UTF-8"?>
<svg width="100pt" height="100pt" version="1.1" viewBox="0 0 100 100" xmlns="http://www.w3.org/2000/svg">
 <g>
  <path d="m67.711 42.633c0-9.5664-7.7539-17.316-17.316-17.316h-0.78516c-9.5664 0-17.316 7.7539-17.316 17.316l-0.003907 14.719c0 9.5664 7.7539 17.316 17.316 17.316h0.78516c9.5664 0 17.316-7.7539 17.316-17.316zm-2.9062 14.719c0 3.9844-1.6094 7.5781-4.2227 10.191-2.6133 2.6094-6.207 4.2227-10.191 4.2227h-0.78516c-3.9844 0-7.5781-1.6094-10.191-4.2227-2.6094-2.6133-4.2227-6.207-4.2227-10.191v-14.719c0-3.9844 1.6094-7.5781 4.2227-10.191 2.6133-2.6094 6.207-4.2227 10.191-4.2227h0.78516c3.9844 0 7.5781 1.6094 10.191 4.2227 2.6094 2.6133 4.2227 6.207 4.2227 10.191z"/>
  <path d="m49.977 39.902c-0.80078 0-1.4531 0.64844-1.4531 1.4531v4.2578c0 0.80078 0.64844 1.4531 1.4531 1.4531 0.80078 0 1.4531-0.64844 1.4531-1.4531v-4.2578c0-0.80078-0.65234-1.4531-1.4531-1.4531z"/>
  <path d="m49.094 94.684c0.53125 0.42578 1.2812 0.42578 1.8125 0l7.2578-5.8047c0.625-0.5 0.72656-1.4141 0.22656-2.0391s-1.4141-0.72656-2.0391-0.22656l-6.3516 5.0742-6.3516-5.082c-0.625-0.5-1.5391-0.39844-2.0391 0.22656s-0.39844 1.5391 0.22656 2.0391z"/>
  <path d="m56.352 13.391c0.625 0.5 1.5391 0.39844 2.0391-0.22656s0.39844-1.5391-0.22656-2.0391l-7.2578-5.8086c-0.53125-0.42578-1.2812-0.42578-1.8125 0l-7.2578 5.8047c-0.625 0.5-0.72656 1.4141-0.22656 2.0391s1.4141 0.72656 2.0391 0.22656l6.3516-5.0742z"/>
 </g>
</svg>
