<svg xmlns="http://www.w3.org/2000/svg" viewBox="0 0 440 149.18"><defs><style>text{font-family: "ProximaNova", sans-serif}.cls-1{font-size:99.32px;fill:#fcfcfc;letter-spacing:0.02em;}.cls-2{letter-spacing:0.02em;}.cls-3{letter-spacing:0.03em;}.cls-4{fill:#ff0;}.cls-5{fill:#ffcd00;}.cls-6{fill:#ff6800;}.cls-7{fill:#d3da29;}.cls-8{fill:#ff2c07;}.cls-9{fill:#ffb40d;}.cls-10{fill:#7f0a54;}.cls-11{fill:#ff7b14;}.cls-12{fill:#b01c34;}.cls-13{fill:#ff7d00;}.cls-14{fill:#fa0030;}</style></defs><title>Billow</title><g id="Layer_2" data-name="Layer 2"><g id="Layer_1-2" data-name="Layer 1"><text class="cls-1" transform="translate(159.93 122.17)">Billow</text><circle class="cls-4" cx="100.39" cy="1" r="1"/><circle class="cls-4" cx="70.98" cy="9.63" r="1"/><circle class="cls-5" cx="81.11" cy="20.28" r="2.5"/><circle class="cls-5" cx="51.44" cy="29.17" r="2.5"/><circle class="cls-5" cx="102.19" cy="41.36" r="2.5"/><circle class="cls-6" cx="71.98" cy="49.72" r="2.5"/><circle class="cls-5" cx="23.07" cy="38.85" r="2.5"/><circle class="cls-7" cx="90.36" cy="11.03" r="1.5"/><circle class="cls-7" cx="60.69" cy="19.92" r="1.5"/><circle class="cls-7" cx="32.84" cy="29.09" r="1.5"/><circle class="cls-7" cx="111.44" cy="32.11" r="1.5"/><circle class="cls-8" cx="62.92" cy="38.47" r="4.5"/><circle class="cls-8" cx="32.76" cy="47.85" r="4.5"/><circle class="cls-9" cx="84" cy="59.55" r="4.5"/><circle class="cls-10" cx="53.3" cy="68.4" r="4.5"/><circle class="cls-10" cx="47.52" cy="100.07" r="4.5"/><circle class="cls-10" cx="26.44" cy="78.99" r="4.5"/><circle class="cls-10" cx="74.64" cy="89.73" r="4.5"/><circle class="cls-10" cx="4.5" cy="57.43" r="4.5"/><circle class="cls-11" cx="105.21" cy="80.76" r="4.5"/><circle class="cls-8" cx="125.97" cy="101.52" r="4.5"/><circle class="cls-12" cx="53.34" cy="48.05" r="5.5"/><circle class="cls-10" cx="23.27" cy="57.34" r="5.5"/><circle class="cls-12" cx="74.42" cy="69.13" r="5.5"/><circle class="cls-10" cx="43.81" cy="77.89" r="5.5"/><circle class="cls-10" cx="65.15" cy="99.22" r="5.5"/><circle class="cls-12" cx="95.63" cy="90.34" r="5.5"/><circle class="cls-12" cx="116.39" cy="111.1" r="5.5"/><circle class="cls-10" cx="86.38" cy="120.48" r="5.5"/><circle class="cls-10" cx="35.69" cy="69.74" r="3.08"/><circle class="cls-13" cx="71.77" cy="29.62" r="3.5"/><circle class="cls-13" cx="42.18" cy="38.43" r="3.5"/><circle class="cls-13" cx="92.85" cy="50.7" r="3.5"/><circle class="cls-13" cx="62.73" cy="58.97" r="3.5"/><circle class="cls-13" cx="84.07" cy="80.31" r="3.5"/><circle class="cls-14" cx="13.82" cy="48.11" r="3.5"/><circle class="cls-9" cx="114.06" cy="71.91" r="3.5"/><circle class="cls-10" cx="42.8" cy="58.59" r="6.5"/><circle class="cls-10" cx="63.88" cy="79.67" r="6.5"/><circle class="cls-10" cx="85.09" cy="100.88" r="6.5"/><circle class="cls-10" cx="105.84" cy="121.64" r="6.5"/><circle class="cls-10" cx="126.89" cy="142.69" r="6.5"/></g></g></svg>