<svg xmlns="http://www.w3.org/2000/svg" viewBox="0 0 68.65 45.28"><defs><style>.cls-1{fill:#ffb40d;}</style></defs><title>Network</title><g id="Layer_2" data-name="Layer 2"><g id="Layer_1-2" data-name="Layer 1"><path class="cls-1" d="M46,0a1.7,1.7,0,0,0-1.7,1.7v8.73a1.71,1.71,0,0,0,3.41,0V3.48a19.24,19.24,0,1,1-13,3.62,1.7,1.7,0,1,0-2-2.75A22.63,22.63,0,1,0,46,0Z"/><path class="cls-1" d="M34.6,16.24a1.71,1.71,0,0,0,.62,2.33l9.51,5.54a1.65,1.65,0,0,0,.85.23,1.7,1.7,0,0,0,.86-3.18l-9.51-5.54A1.72,1.72,0,0,0,34.6,16.24Z"/><path class="cls-1" d="M4.5,11.41H20.25a1.5,1.5,0,0,0,0-3H4.5a1.5,1.5,0,0,0,0,3Z"/><path class="cls-1" d="M1.5,19.4H17.25a1.5,1.5,0,0,0,0-3H1.5a1.5,1.5,0,0,0,0,3Z"/><path class="cls-1" d="M18.75,25.89a1.5,1.5,0,0,0-1.5-1.5H1.5a1.5,1.5,0,0,0,0,3H17.25A1.5,1.5,0,0,0,18.75,25.89Z"/><path class="cls-1" d="M21.75,33.88a1.5,1.5,0,0,0-1.5-1.5H4.5a1.5,1.5,0,0,0,0,3H20.25A1.5,1.5,0,0,0,21.75,33.88Z"/></g></g></svg>