<svg xmlns="http://www.w3.org/2000/svg" viewBox="0 0 47.3 68.84"><defs><style>.cls-1{fill:#fcfcfc;fill-rule:evenodd;}</style></defs><title>Newsletter</title><g id="Layer_2" data-name="Layer 2"><g id="Layer_1-2" data-name="Layer 1"><path class="cls-1" d="M46,2.18c-.31,0-.37-.25-.61-.31-2,2-4.17,1.15-6.73,1.56-1.07.16-2.26,1.07-3.36,1.24-10.35,1.66-23.64-1.12-31.8,0-1,15.79-1.74,33.41-2.14,51.7-.07,3.4-.72,5.65.31,9,15.28-.55,27.05.63,43.71-.31C44,45.41,46.34,23.55,46,2.18ZM46,0h.61c1.62,5.1.09,9.48,0,15.26-.15,8.39-.06,17-.31,25.54s-1.06,17.46.92,25.84c-7,3.29-16.45,1.94-25.38,1.87-7.47-.06-15.3,1.12-21.7-1.25C-.56,46,2.55,24.15,1.92,1.87,16.54,1.28,34.17,3.22,46,0Z"/><path class="cls-1" d="M43.2,6.85C42.05,9.9,36.14,9,33.11,8.41,33.68,4.75,40.69,7.69,43.2,6.85Z"/><path class="cls-1" d="M42.28,10.9c-1.44,1.68-6.31,1.42-8.86.93-.13-.75.55-.67.3-1.56C36.14,9.66,40,9.37,42.28,10.9Z"/><path class="cls-1" d="M41.36,14.64c.91.89-.76.54-.61,1.55-2.25-.57-4.75.35-7-.93C34.13,12.28,39.23,14.57,41.36,14.64Z"/><path class="cls-1" d="M18.43,21.49v2.18c-2.12,1.2-4.68.28-7.95.31C8.17,24,5.4,25.06,5,22.73c.87-1.84,2.89-.54,4.58-.62C12.44,22,15.79,20.69,18.43,21.49Z"/><path class="cls-1" d="M40.75,28.65c-1.28,1.77-3.65,1-5.5,1.25-3.13.39-6.6,1.25-9.78.93-1-.1-1.79-.87-2.75-.93C17,29.52,11,30.74,6.21,29.28c-.09-.51.29-.54.3-.94C17.2,28.48,29.73,27.86,40.75,28.65Z"/><path class="cls-1" d="M41.36,33c.86,1.18-1.44,1.29-1.83,2.18-3.91-1.26-8.09.78-12.23.62S19.84,34.29,16,34.57c-3.06.22-7.14,1.71-10.7.3,2.34-2.14,7.62-1.86,11-1.86,2.87,0,5.8.66,8.56.62,3.13-.05,6-1.47,8.87-1.25S38.78,33.75,41.36,33Z"/><path class="cls-1" d="M41.06,39.24c-2.09,3.51-7.47,1.25-10.7,1.25-3.42,0-7.26,2-11.62.93.72-4.07,4.94-1.06,7-.93,1.7.1,2.49-.83,4.28-1.25C33.51,38.44,37.31,39.59,41.06,39.24Z"/><path class="cls-1" d="M16.9,39.86c1.11,1.48-2.25,2.49-3,1.25-2.31.55-5.2,1.49-7.65.93C5.94,36.86,14.87,41.72,16.9,39.86Z"/><path class="cls-1" d="M11.71,45.47c-.86,1.78-5-.25-6.73,1.24C4.61,43.27,10.51,43.36,11.71,45.47Z"/><path class="cls-1" d="M40.75,43.91c.06,2.59-6.24,2.59-8,1.25C34,42.89,38.77,44.57,40.75,43.91Z"/><path class="cls-1" d="M29.74,45.47C29.18,46.77,25.4,47,23.63,47a39.74,39.74,0,0,1-9.17-.94c-.19-.27-.37-.56,0-.62C19.1,44.24,26.61,45.14,29.74,45.47Z"/><path class="cls-1" d="M20.88,49.51c.18,1.44-1.59.88-1.84,1.87-4.18-1.32-8.33-.31-13.45-.31C7.69,47.31,16.15,49.05,20.88,49.51Z"/><path class="cls-1" d="M38.3,50.45c-2.52,1.81-6.94,1.67-10.09.31-1.23.45-3.5,1.59-4.58.31,1.9-3.06,6.42-1,9.78-.93C35.33,50.17,37.29,48.71,38.3,50.45Z"/><path class="cls-1" d="M32.19,54.19c-.39,2.88-3,1-4.9.93-4.6-.18-11,1.78-15,.62.73-2,3.07-1,4.89-1.24C22.36,53.87,28.14,52.26,32.19,54.19Z"/><path class="cls-1" d="M39.53,55.12A17.64,17.64,0,0,1,34,54.81C34.22,53.18,39.85,52.61,39.53,55.12Z"/><path class="cls-1" d="M9.26,55.43a12.15,12.15,0,0,1-4,.63c-.13-.75.56-.68.3-1.56C6.86,54.21,9.17,53.71,9.26,55.43Z"/><path class="cls-1" d="M40.75,59.17C40.19,61.3,37.49,61,35.86,61c-2.27.13-4.93-.67-7.64-.62-3.22.06-6.28,1.12-9.17.93S13.6,60,11.1,60.1c-1.79.09-3.29,1.52-4.89.62,3-3.86,8.25-2.06,13.14-1.56C25.63,59.81,34.12,58.44,40.75,59.17Z"/></g></g></svg>