<svg xmlns="http://www.w3.org/2000/svg" viewBox="0 0 52.5 45.67"><defs><style>.cls-1{fill:#ffb40d;}</style></defs><title>Supply</title><g id="Layer_2" data-name="Layer 2"><g id="Layer_1-2" data-name="Layer 1"><path class="cls-1" d="M23.48,40.8a1.28,1.28,0,0,0-.75-1.65,1.27,1.27,0,0,0-1.65.75c-.52,1.5-4.2,3.15-9.23,3.15-4.8,0-8.47-1.58-9.15-3.08A1.26,1.26,0,0,0,1,39.37a1.26,1.26,0,0,0-.6,1.73c1.27,2.7,5.92,4.57,11.47,4.57C17.7,45.67,22.43,43.64,23.48,40.8Zm0-6.68a1.28,1.28,0,0,0-2.4-.9c-.52,1.5-4.2,3.15-9.23,3.15-4.8,0-8.47-1.57-9.15-3.07A1.26,1.26,0,0,0,1,32.69a1.27,1.27,0,0,0-.6,1.73C1.65,37.12,6.3,39,11.85,39,17.7,39,22.43,37,23.48,34.12Zm0,0a1.28,1.28,0,0,0-2.4-.9c-.52,1.5-4.2,3.15-9.23,3.15-4.8,0-8.47-1.57-9.15-3.07A1.26,1.26,0,0,0,1,32.69a1.27,1.27,0,0,0-.6,1.73C1.65,37.12,6.3,39,11.85,39,17.7,39,22.43,37,23.48,34.12Zm0-6.68a1.28,1.28,0,0,0-2.4-.89c-.52,1.5-4.2,3.14-9.23,3.14-4.8,0-8.47-1.57-9.15-3.07A1.25,1.25,0,0,0,1,26a1.26,1.26,0,0,0-.6,1.73c1.27,2.69,5.92,4.57,11.47,4.57C17.7,32.32,22.43,30.3,23.48,27.44Zm0,0a1.28,1.28,0,0,0-2.4-.89c-.52,1.5-4.2,3.14-9.23,3.14-4.8,0-8.47-1.57-9.15-3.07A1.25,1.25,0,0,0,1,26a1.26,1.26,0,0,0-.6,1.73c1.27,2.69,5.92,4.57,11.47,4.57C17.7,32.32,22.43,30.3,23.48,27.44ZM11.85,16.05c-5.62,0-9.23,2.1-9.23,3.52s3.61,3.52,9.23,3.52,9.23-2.1,9.23-3.52S17.55,16.05,11.85,16.05Zm0,9.59C5.1,25.64,0,23,0,19.5s5.1-6.15,11.85-6.15S23.7,16,23.7,19.5,18.6,25.64,11.85,25.64ZM52.27,40.8a1.28,1.28,0,1,0-2.39-.9c-.53,1.5-4.2,3.15-9.23,3.15-4.8,0-8.48-1.58-9.15-3.08a1.29,1.29,0,1,0-2.33,1.13c1.27,2.7,5.93,4.57,11.48,4.57C46.43,45.67,51.23,43.64,52.27,40.8Zm0-6.68a1.28,1.28,0,1,0-2.39-.9c-.53,1.5-4.2,3.15-9.23,3.15-4.8,0-8.48-1.57-9.15-3.07a1.29,1.29,0,1,0-2.33,1.12C30.44,37.12,35.1,39,40.65,39,46.43,39,51.23,37,52.27,34.12Zm0,0a1.28,1.28,0,1,0-2.39-.9c-.53,1.5-4.2,3.15-9.23,3.15-4.8,0-8.48-1.57-9.15-3.07a1.29,1.29,0,1,0-2.33,1.12C30.44,37.12,35.1,39,40.65,39,46.43,39,51.23,37,52.27,34.12Zm0-6.68a1.28,1.28,0,1,0-2.39-.89c-.53,1.5-4.2,3.14-9.23,3.14-4.8,0-8.48-1.57-9.15-3.07a1.26,1.26,0,0,0-1.73-.6,1.28,1.28,0,0,0-.6,1.73c1.27,2.69,5.93,4.57,11.48,4.57C46.43,32.32,51.23,30.3,52.27,27.44Zm0-6.67a1.28,1.28,0,1,0-2.39-.9c-.53,1.5-4.2,3.15-9.23,3.15-4.8,0-8.48-1.58-9.15-3.08a1.29,1.29,0,0,0-2.33,1.13c1.27,2.7,5.93,4.57,11.48,4.57C46.43,25.64,51.23,23.62,52.27,20.77Zm0,0a1.28,1.28,0,1,0-2.39-.9c-.53,1.5-4.2,3.15-9.23,3.15-4.8,0-8.48-1.58-9.15-3.08a1.29,1.29,0,0,0-2.33,1.13c1.27,2.7,5.93,4.57,11.48,4.57C46.43,25.64,51.23,23.62,52.27,20.77Zm0-6.67a1.28,1.28,0,1,0-2.39-.9c-.53,1.5-4.2,3.15-9.23,3.15-4.8,0-8.48-1.58-9.15-3.08a1.29,1.29,0,1,0-2.33,1.13C30.44,17.1,35.1,19,40.65,19,46.43,19,51.23,16.94,52.27,14.1Zm0,0a1.28,1.28,0,1,0-2.39-.9c-.53,1.5-4.2,3.15-9.23,3.15-4.8,0-8.48-1.58-9.15-3.08a1.29,1.29,0,1,0-2.33,1.13C30.44,17.1,35.1,19,40.65,19,46.43,19,51.23,16.94,52.27,14.1ZM40.65,2.69c-5.63,0-9.23,2.11-9.23,3.53S35,9.74,40.65,9.74s9.23-2.1,9.23-3.52S46.27,2.69,40.65,2.69Zm0,9.61C33.9,12.3,28.8,9.67,28.8,6.15S33.9,0,40.65,0,52.5,2.62,52.5,6.15,47.4,12.3,40.65,12.3Z"/></g></g></svg>