<svg xmlns="http://www.w3.org/2000/svg" viewBox="0 0 147.28 33.25"><defs><style>.cls-1{fill:#fcfcfc;}</style></defs><title>Telegram</title><g id="Layer_2" data-name="Layer 2"><g id="svg3007"><g id="layer1"><path id="path3037" class="cls-1" d="M73,33.05a29.67,29.67,0,0,1-3-.76,14.8,14.8,0,0,1,.28-3.07c8.8,2.53,10.83.87,11-4.75V23.12l-1.13,1a6.19,6.19,0,0,1-5.08,1.7c-4.28-.28-6.66-3.41-6.66-8.8,0-3.22.7-5.27,2.5-7.18a7.38,7.38,0,0,1,9.34-1.12l1,.7V8L83.11,8,85,8.11,85,15.37c.09,11.32-.24,13.53-2.35,15.69-2.84,2.39-5.74,2.38-9.71,2ZM78.52,21.9a10.05,10.05,0,0,0,1.82-1.31l.92-.85V12.67l-.66-.56c-2.25-1.9-4.68-2-6.51-.38-1.19,1.07-1.72,2.62-1.73,5.11,0,3,.63,4.54,2.25,5.3a4.7,4.7,0,0,0,3.91-.24ZM25.25,24.28a10.12,10.12,0,0,1-2.74-8.68,9.12,9.12,0,0,1,2.86-6.1,6.59,6.59,0,0,1,4.51-1.86c4.76-.33,7.58,2.91,7.59,8.73v1.52c-3.63.1-7.78-.22-11.15.28.49,3.13,2.75,5.47,5.89,5.51a24.53,24.53,0,0,0,5.06-.83l.06,2.88a40.44,40.44,0,0,1-5.86,1,9.36,9.36,0,0,1-6.22-2.44Zm8.43-9.91c0-1.79-1.17-3.48-2.59-3.75-2.25-.42-4,.89-4.53,3.43l-.2.9h7.32v-.58Zm19.14,9.91a10.14,10.14,0,0,1-2.73-8.68A9.12,9.12,0,0,1,53,9.5a6.59,6.59,0,0,1,4.51-1.86c4.75-.33,7.58,2.91,7.59,8.73v1.52c-3.87-.05-7.58,0-11.25-.06.22,3.69,2.6,6,6,5.85a19.39,19.39,0,0,0,5.06-.83c.33.2.25,2.53-.1,2.82s-4.08,1.06-5.7,1a9.34,9.34,0,0,1-6.22-2.44Zm8.44-9.91c0-1.79-1.17-3.48-2.59-3.75-2.25-.42-4,.89-4.53,3.43l-.2.9h7.32v-.58Zm44.16,12.08a5.31,5.31,0,0,1-3.07-6.7,6.34,6.34,0,0,1,3-3.23A15.93,15.93,0,0,1,111,15.38h1.21V13.88c-.07-4-3.24-3.75-6.37-2.61-.84.3-1.93.55-2.14.61,0-.94-.12-1.58-.12-3l1.74-.55a15.45,15.45,0,0,1,3.84-.67c3.38-.19,5.2.55,6.27,2.54.44.82.47,1.2.57,6.8.11,5.92.11,5.93.62,6.47a3.69,3.69,0,0,0,1.76.65,13,13,0,0,1,0,2.34,13.36,13.36,0,0,1-2.74.25,2.81,2.81,0,0,1-2.5-1.7l-.3-.58-.78.63c-1.81,1.44-4.82,2.08-6.63,1.41Zm4.42-3.17a8.9,8.9,0,0,0,1.61-.79l.76-.49V17.68h-.91c-2.12,0-4.65,1.09-5.17,2.23a2.54,2.54,0,0,0,1.06,3.32,3,3,0,0,0,2.65.05ZM8.63,15.37V4.42H0V1.47H21.26v3H12.63v21.9h-4Zm33.48-2.21V0h3.78V26.32H42.11Zm48.21,4V8c1.22,0,2.5,0,3.73,0,0,.76,0,1.51.08,2.27a7.5,7.5,0,0,1,5.09-2.55l1.41-.15v3.61c-2.37-.7-4.84.87-6,2.39-.43.6-.45.91-.55,6.63l-.11,6-3.68.12V17.16Zm31.36,0V8h3.79v3.14c1.6-1.8,3.54-3.49,5.69-3.46,2.63-.1,3.71,1.6,4.88,3.49,3.29-3.71,9.29-4.77,11.15-.36.17,6,.07,8.25,0,15.5-1.23,0-2.35,0-3.57,0,.06-4.68,0-10-.13-14.36a2.25,2.25,0,0,0-2.83-1.25,9.08,9.08,0,0,0-4.27,3.21c0,4.08,0,8.31,0,12.39h-3.77L132.53,12a2.4,2.4,0,0,0-2.79-1.05,6.88,6.88,0,0,0-4.27,3.26c0,4.05,0,8.09,0,12.14h-3.74V17.16Z"/></g></g></g></svg>