<svg xmlns="http://www.w3.org/2000/svg" viewBox="0 0 37.48 72.63"><defs><style>.cls-1{fill:#4a83fa;}</style></defs><title>U</title><g id="Layer_2" data-name="Layer 2"><g id="Layer_1-2" data-name="Layer 1"><path class="cls-1" d="M9.09,24.94v29.3a10.15,10.15,0,0,0,2.24,6.92,9.37,9.37,0,0,0,7.41,3.22,9.37,9.37,0,0,0,7.41-3.22,10.15,10.15,0,0,0,2.24-6.92V24.94h9.09V53.47c0,4.4-.7,8.88-3.5,12.45-3.35,4.4-9.23,6.71-15.24,6.71S6.85,70.32,3.5,65.92C.7,62.35,0,57.87,0,53.47V24.94Z"/><circle class="cls-1" cx="18.55" cy="9.68" r="9.68"/></g></g></svg>