<svg xmlns="http://www.w3.org/2000/svg" viewBox="0 0 59.89 59.87"><defs><style>.cls-1{fill:#ffb40d;}</style></defs><title>Block</title><g id="Layer_2" data-name="Layer 2"><g id="Layer_1-2" data-name="Layer 1"><path class="cls-1" d="M40.44,44.93a1.5,1.5,0,0,0-1.5,1.5v10.5a1.5,1.5,0,1,0,3,0V46.43A1.5,1.5,0,0,0,40.44,44.93Zm6-6a1.5,1.5,0,0,0,0,3h10.5a1.5,1.5,0,0,0,0-3ZM24.65,21.73a13.46,13.46,0,0,0-9.56,4L4,36.82a13.51,13.51,0,0,0,19.1,19.1L33.13,45.84a1.5,1.5,0,0,0,.44-1.06A1.51,1.51,0,0,0,31,43.71L20.92,53.79A10.49,10.49,0,1,1,6.09,39L17.22,27.8a10.46,10.46,0,0,1,14.86,0,1.52,1.52,0,0,0,2.23.12,1.58,1.58,0,0,0,.44-1.15,1.51,1.51,0,0,0-.56-1.08A13.45,13.45,0,0,0,24.65,21.73ZM2.94,17.93a1.5,1.5,0,0,0,0,3h10.5a1.5,1.5,0,0,0,0-3Zm16.5-16.5a1.5,1.5,0,0,0-1.5,1.5v10.5a1.5,1.5,0,1,0,3,0V2.93A1.5,1.5,0,0,0,19.44,1.43ZM46.37,0a13.39,13.39,0,0,0-9.53,3.94L26.76,14a.23.23,0,0,0-.07.07,1.51,1.51,0,0,0,2.2,2.06L39,6.07A10.49,10.49,0,0,1,53.8,20.91L42.67,32.06a10.44,10.44,0,0,1-14.86,0,1.5,1.5,0,0,0-2.67,1,1.54,1.54,0,0,0,.56,1.09,13.51,13.51,0,0,0,19.1,0L55.94,23A13.49,13.49,0,0,0,46.37,0Z"/></g></g></svg>