<svg xmlns="http://www.w3.org/2000/svg" viewBox="0 0 48.37 51.78"><defs><style>.cls-1{fill:#ffb40d;}</style></defs><title>Difficulty</title><g id="Layer_2" data-name="Layer 2"><g id="Layer_1-2" data-name="Layer 1"><path class="cls-1" d="M15,48.2l-13-7.49v-15l5.27,3.05v8.95L15,42.18ZM9.36,20.56,15,23.83v7.05L9.36,27.6Zm12.8-2-6.08,3.51-5.71-3.3,6.09-3.51ZM11.24,9.88l13-7.52,13,7.51-5.21,3L24.25,8.39,16.46,12.9Zm13,7.52L18.5,14.07l5.75-3.32L30,14.06Zm13.91,1.37-5.8,3.35-6.1-3.53L32,15.25ZM33.31,30.9v-7l5.84-3.37v7Zm13-5.14v15l-13,7.51v-6l7.88-4.54v-9ZM25.25,44.57V37.88l6-3.47v6.68ZM17.08,34.41,23.21,38v6.59L17.07,41Zm-2-1.18v6.59L9.36,36.55V30Zm8.19-4.67v7l-6.13-3.54V25Zm2,7v-7l6-3.46v6.94ZM39.15,29.9v6.65l-5.83,3.36V33.26ZM30.3,23.3l-6.06,3.49-6.13-3.54,6.06-3.5ZM24.25,47.51l7-4v8.32l17.09-9.86V22.22L41.2,26.35V18.17l-7.12-4.1,7.26-4.2L24.25,0,8.19,9.28v1.2l6.22,3.6-7.09,4.1v8.24L0,22.19v19.7l17.06,9.85V43.36Z"/></g></g></svg>