<svg xmlns="http://www.w3.org/2000/svg" viewBox="0 0 492 91.4"><defs><style>.cls-1{fill:#fcfcfc;}</style></defs><title>Discord</title><g id="Layer_2" data-name="Layer 2"><g id="Layer_1-2" data-name="Layer 1"><path class="cls-1" d="M33.3,1.3H.1V38.6L22.2,58.5V22.3H34c7.5,0,11.2,3.6,11.2,9.4V59.4c0,5.8-3.5,9.7-11.2,9.7H0V90.2H33.2C51,90.3,67.7,81.4,67.7,61V31.2C67.8,10.4,51.1,1.3,33.3,1.3ZM207.3,61V30.4c0-11,19.8-13.5,25.8-2.5l18.3-7.4C244.2,4.7,231.1.1,220.2.1c-17.8,0-35.4,10.3-35.4,30.3V61c0,20.2,17.6,30.3,35,30.3a35.71,35.71,0,0,0,32-19.9l-19.6-9c-4.8,12.3-24.9,9.3-24.9-1.4ZM146.8,34.6c-6.9-1.5-11.5-4-11.8-8.3.4-10.3,16.3-10.7,25.6-.8l14.7-11.3C166.1,3,155.7,0,145,0c-16.3,0-32.1,9.2-32.1,26.6,0,16.9,13,26,27.3,28.2,7.3,1,15.4,3.9,15.2,8.9-.6,9.5-20.2,9-29.1-1.8L112.1,75.2c8.3,10.7,19.6,16.1,30.2,16.1,16.3,0,34.4-9.4,35.1-26.6,1-21.7-14.8-27.2-30.6-30.1Zm-67,55.5h22.4V1.3H79.8ZM457.5,1.3H424.3V38.6l22.1,19.9V22.3h11.8c7.5,0,11.2,3.6,11.2,9.4V59.4c0,5.8-3.5,9.7-11.2,9.7h-34V90.2h33.3c17.8.1,34.5-8.8,34.5-29.2V31.2C492,10.4,475.3,1.3,457.5,1.3ZM294.6.1c-18.4,0-36.7,10-36.7,30.5V60.9c0,20.3,18.4,30.5,36.9,30.5s36.7-10.2,36.7-30.5V30.6C331.5,10.2,313,.1,294.6.1ZM309,60.9c0,6.4-7.2,9.7-14.3,9.7s-14.4-3.1-14.4-9.7V30.6c0-6.5,7-10,14-10,7.3,0,14.7,3.1,14.7,10ZM411.9,30.6c-.5-20.8-14.7-29.2-33-29.2H343.4V90.2h22.7V62h4l20.6,28.2h28L394.5,59.7C405.2,56.3,411.9,47,411.9,30.6Zm-32.6,12H366.1V22.3h13.2C393.4,22.3,393.4,42.6,379.3,42.6Z"/></g></g></svg>