<svg xmlns="http://www.w3.org/2000/svg" viewBox="0 0 409.7 80.8"><defs><style>.cls-1{fill:#fcfcfc;}</style></defs><title>facebook</title><g id="Layer_2" data-name="Layer 2"><g id="Layer_1-2" data-name="Layer 1"><g id="Layer_4" data-name="Layer 4"><path class="cls-1" d="M210.45,39.25a18.72,18.72,0,0,0-8.28,2.23V67a52.25,52.25,0,0,0,6,.23c8.1,0,9.21-3.71,9.21-8.88V46.13c0-3.82-1.27-6.88-6.9-6.88m-53.8-1.39c-5.62,0-6.9,3.08-6.9,6.9V46.9h13.8V44.76c0-3.82-1.28-6.9-6.9-6.9M52.42,64.4c0,3,1.43,4.58,4.57,4.58,3.38,0,5.38-1.1,7.84-2.23v-6H57.45c-3.5,0-5,.65-5,3.68M262.79,39.25c-5.63,0-7.58,3.07-7.58,6.88V60.08c0,3.83,2,6.9,7.58,6.9s7.58-3.07,7.58-6.9V46.14c0-3.82-2-6.88-7.58-6.88M24.79,80H8.28V40H0V26.22H8.27V17.94C8.27,6.69,12.94,0,26.2,0h11V13.79H30.3c-5.16,0-5.51,1.93-5.51,5.52v6.9H37.34L35.87,40h-11V80Zm56.57.1H67.6L67,76.63a31.68,31.68,0,0,1-15.63,4.05c-10.12,0-15.5-6.75-15.5-16.08,0-11,6.28-14.94,17.52-14.94H64.83V47.28c0-5.62-.65-7.27-9.3-7.27H41.38l1.38-13.79H58.23c19,0,23.16,6,23.16,21.17V80.12ZM128.27,41c-8.58-1.47-11-1.79-15.18-1.79-7.42,0-9.66,1.64-9.66,7.93v11.9c0,6.29,2.24,7.93,9.66,7.93,4.13,0,6.6-.32,15.18-1.8V78.63a72.83,72.83,0,0,1-16.56,2.13c-17.77,0-24.83-9.33-24.83-22.82V48.28c0-13.49,7.06-22.84,24.83-22.84a73.4,73.4,0,0,1,16.56,2.13Zm51.8,16.92H149.74v1.11c0,6.29,2.24,7.93,9.66,7.93a96.28,96.28,0,0,0,19.31-1.8V78.63A86.65,86.65,0,0,1,158,80.76c-17.77,0-24.86-9.36-24.86-22.82v-11c0-11.83,5.27-21.54,23.48-21.54S180.1,35,180.1,46.86v11Zm53.8.25c0,13-3.73,22.54-26.32,22.54-8.15,0-12.94-.72-22-2.1V4.14L202.17,1.4v26a37.49,37.49,0,0,1,12.42-2c16.55,0,19.3,7.41,19.3,19.32Zm53,.29c0,11.24-4.65,22.14-24.09,22.14s-24.19-10.9-24.19-22.14V47.63c0-11.24,4.73-22.15,24.19-22.15s24.16,10.92,24.16,22.15Zm53,0c0,11.24-4.65,22.14-24.09,22.14s-24.19-10.9-24.19-22.14V47.63c0-11.24,4.74-22.15,24.19-22.15s24.16,10.92,24.16,22.15ZM394.27,80H376.4L361.23,54.73V80H344.68V4.15L361.23,1.4V50.23l15.17-24h17.94L377.78,52.4ZM315.79,39.25c-5.62,0-7.57,3.07-7.57,6.88V60.08c0,3.83,2,6.9,7.57,6.9s7.6-3.07,7.6-6.9V46.14c0-3.82-2-6.88-7.6-6.88"/><path class="cls-1" d="M404.56,70.58a5.11,5.11,0,1,1-5.08,5.14v0a5,5,0,0,1,4.9-5.1Zm0,.79a4.33,4.33,0,1,0,4,4A4.33,4.33,0,0,0,404.56,71.37Zm-1,7.28h-.9V73a9.51,9.51,0,0,1,1.6-.13,3,3,0,0,1,1.77.43,1.34,1.34,0,0,1,.54,1.14,1.42,1.42,0,0,1-1.1,1.38h0c.5.09.84.54.95,1.38a4.88,4.88,0,0,0,.36,1.41h-1a4.11,4.11,0,0,1-.39-1.45,1.07,1.07,0,0,0-1.13-1h-.73v2.45Zm0-3.15h.66c.74,0,1.38-.27,1.38-1,0-.5-.36-1-1.38-1a3.64,3.64,0,0,0-.66,0Z"/></g></g></g></svg>