<svg xmlns="http://www.w3.org/2000/svg" viewBox="0 0 834.76 979.97"><defs><style>.cls-1{fill:#fcfcfc;}</style></defs><title>Linux</title><g id="Layer_2" data-name="Layer 2"><g id="Layer_1-2" data-name="Layer 1"><path class="cls-1" d="M813.48,799.4c-25.9-10.7-47.2-27.3-45.7-59.5,1.5-32-22.9-53.2-22.9-53.2s21.4-70.1,1.5-128-85.3-150.8-135.6-220.9c-50.1-70.1-7.5-150.8-53.2-254.4C511.78-20,393-14,329,30.2s-44.3,153.8-41.2,205.7c3,51.7,1.4,88.6-4.5,102-6.1,13.4-47.2,62.5-74.6,103.6s-47.2,126.4-67.1,161.4-6.1,67-6.1,67-13.7,4.5-24.4,27.5c-10.7,22.7-31.9,33.4-70,40.9s-38.1,32.1-29,59.6c9.2,27.3,0,42.7-10.7,77.7s42.6,45.7,94.4,51.7c51.8,6.2,109.7,39.7,158.5,45.7s64-33.5,64-33.5,54.8-12.2,112.6-13.7,112.6,12.1,112.6,12.1,10.7,24.4,30.5,35,62.5,12.2,89.9-16.7,100.6-65.5,141.6-88.3C847,844.9,839.38,809.9,813.48,799.4ZM457,127.6c26.2,0,47.2,25.9,47.2,57.8,0,22.7-10.6,42.2-26.1,51.7-3.9-1.8-8-3.4-12.4-5.4,9.3-4.6,15.9-16.5,15.9-30.3,0-18-11.2-32.6-24.9-32.6s-24.8,14.7-24.8,32.6a40.47,40.47,0,0,0,4.3,18.3c-8.1-3.2-15.6-6.3-21.5-8.4a70,70,0,0,1-5-26C409.78,153.5,430.88,127.6,457,127.6Zm-3.4,122c13,4.5,27.6,13,26.1,21.4s-8.4,8.4-26.1,19.3c-17.7,10.7-56,34.5-68.3,36s-19.2-5.4-32.2-13.8-37.6-28.5-31.4-39.2c0,0,19.1-14.7,27.5-22.3s30-26.1,43-23.7C405.18,229.5,440.58,245,453.58,249.6ZM335.88,136.8c20.6,0,37.3,24.5,37.3,54.8a78.79,78.79,0,0,1-1.6,15.7,50.62,50.62,0,0,0-15.1,8.6c-2.5,2.1-4.7,4-6.9,5.9,3.2-6.1,4.6-14.8,3.1-24-2.7-16.6-13.8-28.6-24.7-26.8s-17.4,16.7-14.7,33.4,13.8,28.7,24.7,26.8a18,18,0,0,0,1.9-.5,156.9,156.9,0,0,1-15.2,13.2c-15.1-7-26.2-27.8-26.2-52.4C298.68,161.3,315.28,136.8,335.88,136.8Zm-40.2,769.6c-4.9,21.8-30.5,37.7-30.5,37.7-23.2,7.2-87.7-20.7-116.8-32.9S45,895.3,35.18,884.5c-9.7-11.1,4.9-35.4,8.6-58.4,3.6-23.2-7.2-37.7-3.7-53.6,3.7-15.8,51.1-15.8,69.3-26.7s21.9-42.6,36.5-51.1,41.3,21.8,52.3,39c11,16.9,52.3,90,69.3,108.2C284.78,860.1,300.48,884.6,295.68,906.4Zm269.4-212.2c-4.4,21.5-4.4,99-4.4,99s-47.2,65.4-120.4,76.1-109.7,3-109.7,3l-41.1-47.2s31.9-4.6,27.4-36.6-97.5-76.2-114.2-115.8-3-106.7,18.3-140.2,35-106.6,56.3-131,38-76.1,30.5-98.9c0,0,45.7,54.9,77.7,45.7s103.6-62.5,114.2-53.3,102.1,210.2,111.1,274.2c9.2,64-6.1,112.6-6.1,112.6S569.58,672.8,565.08,694.2Zm233.8,143.5c-14.2,13-93.4,45.1-117.1,69.9s-54.5,44.9-73.4,39-35.6-31.9-27.2-69.9c8.2-37.8,15.4-79.2,14.2-102.9s-6-55.7,0-60.4,15.3-2.3,15.3-2.3-4.6,44.9,22.5,56.8,66.2-4.7,78.1-16.7c11.9-11.8,20.2-29.5,20.2-29.5s11.8,6,10.7,24.9,8.2,46.2,26.1,55.6C785.78,811.6,813.08,824.6,798.88,837.7Z"/></g></g></svg>