<svg xmlns="http://www.w3.org/2000/svg" viewBox="0 0 136.46 162"><defs><style>.cls-1{fill:#fcfcfc;}</style></defs><title>mac</title><g id="Layer_2" data-name="Layer 2"><g id="Layer_1-2" data-name="Layer 1"><path class="cls-1" d="M133.6,126.25a88.08,88.08,0,0,1-8.71,15.66q-6.87,9.79-11.22,13.56-6.72,6.18-14.42,6.35c-3.69,0-8.14-1-13.32-3.18a38.22,38.22,0,0,0-14.34-3.17,39.56,39.56,0,0,0-14.75,3.17q-7.89,3.2-12.74,3.35-7.4.31-14.74-6.52-4.69-4.09-11.74-14A97.13,97.13,0,0,1,5.21,116.78,90.29,90.29,0,0,1,0,87.4Q0,71.13,7.05,59.34A41.24,41.24,0,0,1,21.8,44.41a39.7,39.7,0,0,1,20-5.63c3.91,0,9,1.21,15.43,3.59S67.62,46,69.41,46c1.34,0,5.88-1.41,13.57-4.24q10.92-3.93,18.45-3.27,20.44,1.65,30.68,16.15-18.29,11.08-18.1,31a34.2,34.2,0,0,0,11.23,25.77,36.9,36.9,0,0,0,11.22,7.36q-1.35,3.92-2.86,7.51Zm-31.26-123q0,12.15-8.86,22.67C86.36,34.23,77.75,39,68.41,38.29a25.18,25.18,0,0,1-.19-3.07c0-7.78,3.39-16.11,9.4-22.91a36.18,36.18,0,0,1,11.45-8.6A34.11,34.11,0,0,1,102.17,0a29.43,29.43,0,0,1,.17,3.24Z"/></g></g></svg>