<svg xmlns="http://www.w3.org/2000/svg" viewBox="0 0 68.55 33.15"><defs><style>.cls-1{fill:#081952;}</style></defs><title>signup</title><g id="Layer_2" data-name="Layer 2"><g id="Layer_1-2" data-name="Layer 1"><polygon class="cls-1" points="23.63 2.18 21.97 0.07 1.65 0.07 0 2.18 23.63 2.18"/><polygon class="cls-1" points="29.63 9.9 28.05 7.88 7.65 7.88 6.07 9.9 29.63 9.9"/><polygon class="cls-1" points="35.7 17.7 34.05 15.6 13.65 15.6 12.07 17.7 35.7 17.7"/><polygon class="cls-1" points="41.7 25.43 40.05 23.32 19.72 23.32 18.07 25.43 41.7 25.43"/><polygon class="cls-1" points="25.72 31.05 24.07 33.15 47.7 33.15 46.05 31.05 25.72 31.05"/><path class="cls-1" d="M47.55,24.45,30.38,2.25H64.43ZM25.8,0,46.13,26.32H49L66.23,3.6V30.82H49l1.72,2.25H68.55V0Z"/></g></g></svg>