<svg xmlns="http://www.w3.org/2000/svg" viewBox="0 0 57.67 67.51"><defs><style>.cls-1,.cls-2{fill:#fff;}.cls-1{fill-rule:evenodd;}</style></defs><title>Whitepaper</title><g id="Layer_2" data-name="Layer 2"><g id="Layer_1-2" data-name="Layer 1"><path class="cls-1" d="M54.75,52c-1.84-.65-3.66-.19-5.44.2C44.1,53.37,38.93,54.7,33.7,55.73c-4.81.94-9.52,2.21-14.29,3.28-2,.45-4.11.7-6.27,1.05a7.06,7.06,0,0,1-.14-1,27.84,27.84,0,0,0-.33-5.69,10.28,10.28,0,0,1-.05-2.66A28.79,28.79,0,0,0,12,44.88a28.78,28.78,0,0,1-.53-4.72,70,70,0,0,0-1-10.62C10,26.4,9.48,23.27,9,20.13c-.16-1.07-.2-2.15-.34-3.22a1.93,1.93,0,0,1,.69-1.79c3-.35,6.24-.32,9.22-1.81-.24-1.44-.37-2.89-.74-4.29A4.23,4.23,0,0,1,18,6.43a1.27,1.27,0,0,1,1-.83,4.88,4.88,0,0,1,.75-.12c1.7-.14,3.41-.25,5.1-.44.88-.1,1.74-.36,2.61-.53,1.11-.21,2.24-.39,3.36-.59,1.93-.35,3.87-.67,5.8-1.07A19.2,19.2,0,0,1,40,2.4,18.22,18.22,0,0,0,43.77,2,15.09,15.09,0,0,1,47,1.67c.62,0,1.25-.13,1.92-.2a4.86,4.86,0,0,1,.69,2.33c.15,1.07.25,2.14.38,3.21.38,3.22.75,6.43,1.15,9.65.76,6.11,1.4,12.24,2.42,18.32.54,3.19.73,6.44,1.11,9.66.28,2.39.61,4.77.93,7.34A2.38,2.38,0,0,1,54.75,52Zm-7.84,3.49a49,49,0,0,0-8.33,2.59c-1.45.62-3,1-4.5,1.52-1.14.39-2.29.75-3.39,1.21-1.64.68-3.23,1.48-4.86,2.17-.81.35-1.68.56-2.51.85s-1.68.57-2.51.89c-.53.2-1,.45-1.63.72a10.62,10.62,0,0,1-1.86-4.22c.18-.13.27-.26.38-.28,3-.41,5.92-1.4,8.89-2.05,2.1-.47,4.22-.86,6.32-1.34,2.78-.62,5.55-1.33,8.34-1.93S47,54.49,49.82,54a3.33,3.33,0,0,1,1.32.09C49.69,54.45,48.39,55.17,46.91,55.51ZM9.5,38.81a7.42,7.42,0,0,1-1.07-2.29A137.88,137.88,0,0,1,3.82,20.85c-.35-1.48-.77-2.94-1.2-4.4a5.13,5.13,0,0,1-.28-2.76,38.69,38.69,0,0,1,7.94-2.84,16.77,16.77,0,0,1-2,3,3.37,3.37,0,0,0-1.11,3.23c.58,3.69,1,7.4,1.48,11.11.36,3.08.65,6.17,1,9.26A10.58,10.58,0,0,1,9.5,38.81Zm1.08-25.93q2-3,4-6A1.66,1.66,0,0,1,16.07,6l1.42,6.4a26.53,26.53,0,0,1-7.2,1.31A3.9,3.9,0,0,1,10.58,12.88Zm47,38.35a61.73,61.73,0,0,1-1-7.54c-.38-3.14-.66-6.29-1.3-9.4s-1-6-1.43-9c-.48-3.52-.86-7-1.33-10.58S51.48,7.39,51,3.74a21.67,21.67,0,0,0-.41-2.25C50.26.41,49.8.07,48.63,0a27.37,27.37,0,0,0-7.75.63c-2.45.62-5,1-7.46,1.46-1.81.32-3.65.46-5.45.84a48.43,48.43,0,0,1-10.6.85,3,3,0,0,0-2.5,1c-.66.76-1.33,1.53-1.91,2.35a3.9,3.9,0,0,1-1.89,1.51c-2.5.93-5,1.92-7.46,2.89-.71.28-1.43.53-2.11.86A2.47,2.47,0,0,0,0,13.91a6.35,6.35,0,0,1,.75,1.38c.82,3.39,1.58,6.8,2.38,10.19A93.49,93.49,0,0,0,8.86,42.41a21.85,21.85,0,0,1,1.73,6.21c.37,2.83.59,5.68.87,8.52.15,1.57.31,3.14.48,4.85l3.22-.57a11.39,11.39,0,0,1,.57,1c.57,1.4,1.13,2.82,1.7,4.23a1.19,1.19,0,0,0,1.35.79,2,2,0,0,0,.73-.21,24.5,24.5,0,0,1,5.85-2.22,5.67,5.67,0,0,0,.89-.35c1.62-.72,3.23-1.48,4.86-2.17,1.11-.46,2.25-.86,3.39-1.25,1.56-.53,3.18-.92,4.68-1.57a58.54,58.54,0,0,1,7.62-2.4c.85-.24,1.71-.44,2.54-.75a5.4,5.4,0,0,1,2.6-.43,4,4,0,0,0,2.28-.34l.56-1.93,2.57-.46A2.82,2.82,0,0,0,57.54,51.23Z"/><path class="cls-1" d="M46.14,41.31a1.17,1.17,0,0,0,.56,0c.21-.1.48-.27.51-.45a.72.72,0,0,0-.28-.62A3.27,3.27,0,0,0,44.39,40a45.24,45.24,0,0,1-6.89,1.15c-2.61.16-5.09,1-7.71,1a2.89,2.89,0,0,0-.9.3,7,7,0,0,1-3.93.33,3,3,0,0,0-2.94.8,3.26,3.26,0,0,1-3.14.79c.17.59.16.95.33,1.12a1,1,0,0,0,1.54,0c.48-.41.87-.92,1.32-1.36A1.53,1.53,0,0,1,24,43.64a5.19,5.19,0,0,0,2.23.34,13.47,13.47,0,0,0,3.72-.61,28.72,28.72,0,0,1,4-.38,1.54,1.54,0,0,0,.37-.09,10.09,10.09,0,0,1,3.19-.39,5.68,5.68,0,0,0,2.23-.26c1.85-.8,3.91-.22,5.75-1C45.59,41.14,45.88,41.3,46.14,41.31Z"/><path class="cls-1" d="M19.84,17.91a5.09,5.09,0,0,1,2.93-.63,5.91,5.91,0,0,0,2.42-.38,12.74,12.74,0,0,1,2.18-.66,4.33,4.33,0,0,1,2.05,0,3.58,3.58,0,0,0,2.75-.2,2.72,2.72,0,0,1,2.21-.13,2.6,2.6,0,0,0,2.69-.28,2.41,2.41,0,0,1,2.68-.16,3,3,0,0,0,2.22.26,19.69,19.69,0,0,0,2.48-.87.54.54,0,0,0,.23-.46.56.56,0,0,0-.34-.39,3.38,3.38,0,0,0-1.47.14,3.29,3.29,0,0,1-3.09.14c-.05,0-.12,0-.18,0a3.11,3.11,0,0,0-2.74.21,3.25,3.25,0,0,1-.69.31,2.3,2.3,0,0,1-1.09.11,5.08,5.08,0,0,0-3.52.29,1.9,1.9,0,0,1-1.46.14,5,5,0,0,0-3.16.05,20.24,20.24,0,0,1-3.9.77,11.74,11.74,0,0,0-3.88.76c-1.18.49-1.21.43-2.59-.2-.69,1.2-.51,1.72.52,1.81A4.67,4.67,0,0,0,19.84,17.91Z"/><path class="cls-1" d="M19,30.89a14.28,14.28,0,0,0,1.36-.67A3.28,3.28,0,0,1,22.7,30a6.31,6.31,0,0,0,2.62.17c2-.42,4.16-.49,6.08-1.42a2.27,2.27,0,0,1,2.2-.13,3.15,3.15,0,0,0,2.76,0,7.58,7.58,0,0,1,3.16-.5,2.31,2.31,0,0,0,1.29-.25,1.84,1.84,0,0,1,2.13.15c.41.29.84.18,1.27-.34a1.85,1.85,0,0,0-1.45-.64c-1.71.14-3.42.26-5.11.55a8.2,8.2,0,0,1-3.75.21,2.72,2.72,0,0,0-1.13.06c-2.18.38-4.4.52-6.58,1a6.62,6.62,0,0,1-3,0A5.07,5.07,0,0,0,20,29.2c-.47.16-.92.38-1.35.57l-.86-.8c-.51.88-.56,1.21-.27,1.6A1.22,1.22,0,0,0,19,30.89Z"/><path class="cls-1" d="M20,38.22c.77-.54,1.51-1.13,2.43-1.82a2.67,2.67,0,0,0,2.73,1,17.14,17.14,0,0,1,4.66-.76.43.43,0,0,0,.19,0A9.91,9.91,0,0,1,34.5,36a2.66,2.66,0,0,0,2.43-1.39,9.09,9.09,0,0,1-1.36.21,16.07,16.07,0,0,0-6.39.69,11.53,11.53,0,0,0-3.72.72,1.9,1.9,0,0,1-1.66-.07,2,2,0,0,0-2.6.38,2.45,2.45,0,0,1-1.71.76,2.79,2.79,0,0,0-.4-.37c-.2-.12-.45-.3-.62-.26a.6.6,0,0,0-.34.79A1.15,1.15,0,0,0,20,38.22Z"/><path class="cls-2" d="M20.7,22.64h-.06l0,0,0,0A.05.05,0,0,0,20.7,22.64Z"/><path class="cls-2" d="M25.35,23.45c3.08-.44,6.12-1.15,9.26-.93a2.34,2.34,0,0,0,1.75-.62c.15-.14.19-.4.41-.87a15.66,15.66,0,0,1-4.72.56c-1.32.09-2.64.26-4,.46-2,.31-4,1.16-6.14.18a.89.89,0,0,0-1.24.41c.36.05.79,0,1,.2C22.84,23.76,24.06,23.64,25.35,23.45Z"/><path class="cls-1" d="M43,33.74a11.08,11.08,0,0,1-3.78.27c0,.75.34,1,.68,1a14,14,0,0,0,2,0,7.23,7.23,0,0,1,1.66-.1,2.53,2.53,0,0,0,2.08-.63c.14-.11.14-.39.22-.6A13.29,13.29,0,0,0,43,33.74Z"/><path class="cls-1" d="M43.52,47.14a6.55,6.55,0,0,1-1.67.27,8.32,8.32,0,0,0-1.12.09c-.19,0-.32.32-.48.49.18.16.35.44.54.47a3.16,3.16,0,0,0,1.5,0A9.29,9.29,0,0,1,46,47.68a1.31,1.31,0,0,0,1.27-.88A6.87,6.87,0,0,0,43.52,47.14Z"/><path class="cls-1" d="M35.94,48.28c-.24,0-.57-.06-.72.07-.6.48-1.31.19-1.92.25-.15.46,0,.8.35.73a4.18,4.18,0,0,1,2.54.26,1.93,1.93,0,0,0,2-.58c0-.13,0-.31-.09-.32C37.41,48.54,36.68,48.4,35.94,48.28Z"/><path class="cls-1" d="M40.18,20.74c-.07-.07-.24,0-.44,0-.05.23-.18.48-.12.68a1.81,1.81,0,0,0,.47.77,1,1,0,0,0,1.37.17,25.77,25.77,0,0,1,2.78-1.55A3.06,3.06,0,0,0,43,21,2.53,2.53,0,0,1,40.18,20.74Z"/><path class="cls-2" d="M19.75,23h.06l0,0S19.76,23,19.75,23Z"/><path class="cls-2" d="M18.68,23.07a6.73,6.73,0,0,1-1.2-.42c.12.57.09,1,.28,1.21s.6.16.85-.05.92-.32,1.14-.81A5.55,5.55,0,0,1,18.68,23.07Z"/><path class="cls-2" d="M19.81,23l0,0h0S19.82,23,19.81,23Z"/><path class="cls-2" d="M19.83,23a.67.67,0,0,0,.79-.29C20.3,22.62,20,22.63,19.83,23Z"/><path class="cls-2" d="M20.64,22.64l0,0h.06l0,0Z"/></g></g></svg>