<?xml version="1.0" encoding="UTF-8"?>
<svg fill="#FFFFFF" width="100pt" height="100pt" version="1.1" viewBox="0 0 100 100" xmlns="http://www.w3.org/2000/svg">
 <path d="m62.5 3.125h-25c-8.75 0-15.625 6.875-15.625 15.625v62.5c0 8.75 6.875 15.625 15.625 15.625h25c8.75 0 15.625-6.875 15.625-15.625v-62.5c0-8.75-6.875-15.625-15.625-15.625zm-3.125 6.25c0 1.875-1.25 3.125-3.125 3.125h-12.5c-1.875 0-3.125-1.25-3.125-3.125zm12.5 71.875c0 5.3125-4.0625 9.375-9.375 9.375h-25c-5.3125 0-9.375-4.0625-9.375-9.375v-62.5c0-4.0625 2.5-7.5 6.25-8.75 0.3125 5 4.375 8.75 9.375 8.75h12.5c5 0 9.0625-3.75 9.375-8.75 3.75 1.25 6.25 5 6.25 8.75zm-9.375 0c0 1.875-1.25 3.125-3.125 3.125h-18.75c-1.875 0-3.125-1.25-3.125-3.125s1.25-3.125 3.125-3.125h18.75c1.875 0 3.125 1.25 3.125 3.125z"/>
</svg>
