<?xml version="1.0" encoding="UTF-8"?>
<svg fill="#f35843" width="44pt" height="44pt" version="1.1" viewBox="0 0 100 100" xmlns="http://www.w3.org/2000/svg">
 <g>
  <path d="m47.574 40.152h-21.512c-0.91016 0-1.5156 0.60547-1.5156 1.5156v6.9688c0 0.91016 0.60547 1.5156 1.5156 1.5156h21.516c0.91016 0 1.5156-0.60547 1.5156-1.5156v-6.9688c-0.003906-0.75781-0.60938-1.5156-1.5195-1.5156zm-1.5117 6.9688h-18.488v-3.9375h18.484z"/>
  <path d="m47.273 55.305h-20.91c-0.91016 0-1.5156 0.60547-1.5156 1.5156v33.789c0 0.91016 0.60547 1.5156 1.5156 1.5156h21.062c0.91016 0 1.5156-0.60547 1.5156-1.5156l-0.003906-33.793c-0.14844-0.75391-0.75391-1.5117-1.6641-1.5117zm-1.5156 33.785h-17.879v-30.758h18.031v30.758z"/>
  <path d="m90.152 95.453h-9.5469v-15.453c6.2109-1.9688 10.758-7.8789 10.758-14.695v-14.09c0-0.91016-0.60547-1.5156-1.5156-1.5156l-28.031-0.003907c-0.91016 0-1.5156 0.60547-1.5156 1.5156l0.003907 13.941c0 6.8164 4.5469 12.727 10.758 14.695v15.605h-16.516v-53.18c0-3.7891-2.8789-6.8164-6.5156-7.4258v-2.4258c0-3.0312-1.8164-5.7578-4.5469-6.9688v-14.695c2.5742 0 4.5469-2.1211 4.5469-4.5469 0-2.5742-2.1211-4.5469-4.5469-4.5469h-13.184c-2.5742 0-4.5469 2.1211-4.5469 4.5469 0 2.5742 2.1211 4.5469 4.5469 4.5469v14.848c-2.7266 1.2109-4.5469 3.7891-4.5469 6.9688v2.4258c-3.6367 0.45312-6.5156 3.6367-6.5156 7.4258l0.003907 53.027h-9.3945c-0.91016 0-1.5156 0.60547-1.5156 1.5156s0.60547 1.5156 1.5156 1.5156h80.305c0.91016 0 1.5156-0.60547 1.5156-1.5156 0-0.90625-0.75781-1.5156-1.5156-1.5156zm-1.8203-42.879v4.3945h-25v-4.3945zm-25 12.578v-5h25v5c0 7.4258-6.5156 13.184-13.938 12.426-6.2109-0.76172-11.062-6.0625-11.062-12.426zm10.758 15.453c1.2109 0.15234 2.4258 0.15234 3.4844 0v14.848h-3.4844zm-45.453-74.543c0-0.91016 0.75781-1.5156 1.5156-1.5156h13.184c0.91016 0 1.5156 0.75781 1.5156 1.5156 0 0.91016-0.75781 1.5156-1.5156 1.5156h-13.184c-0.75781 0.14844-1.5156-0.60938-1.5156-1.5156zm11.668 4.6953v14.242h-6.9727v-14.242zm-11.516 21.668c0-2.4258 1.9688-4.5469 4.5469-4.5469h7.1211c2.4258 0 4.5469 1.9688 4.5469 4.5469l-0.003906 2.4219h-16.211zm-6.5156 63.027v-53.18c0-2.4258 1.9688-4.3945 4.3945-4.3945h20.453c2.4258 0 4.3945 1.9688 4.3945 4.3945v53.18z"/>
 </g>
</svg>
