<?xml version="1.0" encoding="UTF-8"?>
<svg fill="#f35843" width="44pt" height="44pt" version="1.1" viewBox="0 0 100 100" xmlns="http://www.w3.org/2000/svg">
 <g>
  <path d="m79.02 43.07c-0.30078-0.54687-0.91406-0.85156-1.5312-0.76172-0.61719 0.089844-1.1172 0.55859-1.25 1.168-0.38672 1.8047-1.1016 3.5039-2.1016 5.0352-0.92578-6.082-4.0234-9.8281-7.0391-13.469-3.3984-4.1055-6.6094-7.9805-6.6094-15.289 0-3.2852 0.35547-6.6562 1.0625-10.016 0.10547-0.50391-0.054687-1.0234-0.42188-1.3828-0.36719-0.35547-0.89062-0.50391-1.3906-0.38672-16.059 3.7539-27.805 20.75-28.297 40.688-0.66406-2.0352-1.0078-4.1758-1.0078-6.3711 0-2.6055 0.49609-5.168 1.4805-7.6133 0.25391-0.62891 0.050782-1.3516-0.49219-1.7578s-1.293-0.39844-1.8242 0.019532c-8.0664 6.332-12.695 15.82-12.695 26.031 0 18.254 14.852 33.105 33.102 33.105 18.254 0 33.102-14.852 33.102-33.105-0.003907-5.5547-1.418-11.047-4.0859-15.895zm-24.871 45.703c-1.0625 0.14844-2.1406 0.23437-3.2305 0.26953-4.9648-0.55469-8.8633-5.418-8.8633-11.32 0-3.9336 2.1406-8.2188 4.6172-13.18 1.1641-2.3281 2.3555-4.7148 3.4102-7.2305 1.5742 3.1094 3.6641 6.0117 5.7031 8.8438 3.0273 4.2031 5.8906 8.1758 5.8906 11.566 0 5.3594-3.2148 9.8516-7.5273 11.051zm7.7422-2.1602c1.7305-2.4492 2.7812-5.5273 2.7812-8.8906 0-4.3594-3.1367-8.7109-6.4531-13.32-2.6602-3.6953-5.4141-7.5156-6.7969-11.586-0.20703-0.60547-0.77734-1.0156-1.4219-1.0156s-1.2148 0.41016-1.4219 1.0195c-1.2383 3.668-2.9414 7.082-4.5938 10.383-2.5391 5.0781-4.9375 9.875-4.9375 14.52 0 4.1758 1.5977 7.9336 4.1367 10.559-13.328-3.0977-23.293-15.062-23.293-29.316 0-7.5625 2.7969-14.691 7.8008-20.191-0.17578 1.1602-0.26562 2.332-0.26562 3.5117 0 5.0469 1.5781 9.8516 4.5703 13.902 0.39844 0.54297 1.1172 0.75 1.75 0.50781 0.63281-0.24609 1.0195-0.88281 0.94922-1.5547-0.18359-1.7344-0.27344-3.4805-0.27344-5.1875 0-18.148 9.8516-33.875 23.738-38.43-0.44922 2.7656-0.67969 5.5234-0.67969 8.2305 0 8.3906 3.7109 12.871 7.3008 17.203 3.4062 4.1133 6.6289 8.0039 6.6289 15.352 0 0.60156 0.35547 1.1445 0.91016 1.3789 0.55078 0.23438 1.1914 0.12109 1.625-0.29297 1.6953-1.6133 3.0469-3.5117 4-5.5938 1.4141 3.5312 2.1523 7.332 2.1523 11.16 0.003906 12.379-7.5039 23.031-18.207 27.652z"/>
  <path d="m52.609 71.262c-0.64453 0.52344-0.73828 1.4688-0.21484 2.1094 1.7461 2.1406 2.7656 5.8438 1.3672 8.0898-0.4375 0.70312-0.22266 1.6289 0.48438 2.0664 0.24609 0.15234 0.51953 0.22656 0.78906 0.22656 0.50391 0 0.99219-0.25 1.2734-0.71094 2.1992-3.5469 0.82031-8.6055-1.5938-11.566-0.51562-0.64453-1.4609-0.74219-2.1055-0.21484z"/>
 </g>
</svg>
