<?xml version="1.0" encoding="UTF-8"?>
<svg fill="#f35843" width="44pt" height="44pt" version="1.1" viewBox="0 0 100 100" xmlns="http://www.w3.org/2000/svg">
 <g>
  <path d="m60.559 50.047c-3.1797 0.79688-6.5234-0.39062-8.4883-3.0156l-0.82031-1.0938c-0.30859-0.37109-0.76562-0.58984-1.25-0.58984s-0.94141 0.21875-1.25 0.58984l-0.82031 1.0938c-1.9648 2.625-5.3086 3.8125-8.4883 3.0117-0.46484-0.11719-0.96094-0.011719-1.3398 0.28516-0.38281 0.29688-0.60156 0.75391-0.60156 1.2344v5.9375c0.003906 2.7422 0.73047 5.4336 2.1055 7.8047 1.375 2.375 3.3555 4.3398 5.7344 5.7031l3.8789 2.2227c0.48047 0.27344 1.0703 0.27344 1.5508 0l3.8867-2.2188c2.3789-1.3633 4.3594-3.332 5.7344-5.7031 1.3789-2.3711 2.1055-5.0664 2.1094-7.8086v-5.9375c0-0.48047-0.22266-0.9375-0.60156-1.2305-0.37891-0.29688-0.875-0.40234-1.3398-0.28516zm-1.1836 7.4531c-0.003906 4.4609-2.3945 8.5781-6.2656 10.797l-3.1094 1.7812-3.1094-1.7773v-0.003906c-3.8711-2.2188-6.2617-6.3359-6.2656-10.797v-4.1094c3.5742 0.25391 7.0547-1.2109 9.375-3.9453 2.3203 2.7305 5.8008 4.1953 9.375 3.9453z"/>
  <path d="m48.438 57.812h3.125v3.125h-3.125z"/>
  <path d="m74.543 27.668 12.93-12.93h-0.003906c0.95312 0.57422 2.043 0.88281 3.1562 0.88672 2.5273 0 4.8086-1.5234 5.7734-3.8594 0.96875-2.3359 0.43359-5.0234-1.3555-6.8086-1.7852-1.7891-4.4727-2.3242-6.8086-1.3555-2.3359 0.96484-3.8594 3.2461-3.8594 5.7734 0.003906 1.1133 0.3125 2.2031 0.88672 3.1562l-12.473 12.469h-11.648c-2.5547-2.6094-5.9453-4.2422-9.5781-4.6094v-4.9883c3.0469-0.78516 5.0352-3.7148 4.6367-6.8398-0.39453-3.1211-3.0508-5.4609-6.1992-5.4609s-5.8047 2.3398-6.1992 5.4609c-0.39844 3.125 1.5898 6.0547 4.6367 6.8398v4.9883c-3.6328 0.36719-7.0234 2-9.5781 4.6094h-11.648l-12.473-12.469c0.57422-0.95312 0.88281-2.043 0.88672-3.1562 0-2.5273-1.5234-4.8086-3.8594-5.7734-2.3359-0.96875-5.0234-0.43359-6.8086 1.3555-1.7891 1.7852-2.3242 4.4727-1.3555 6.8086 0.96484 2.3359 3.2461 3.8594 5.7734 3.8594 1.1133-0.003906 2.2031-0.3125 3.1562-0.88672l12.93 12.93h-0.003907c0.29297 0.29297 0.69141 0.45703 1.1055 0.45703h9.9258c-1.3828 2.3711-2.1133 5.0664-2.1133 7.8125v3.125h-4.6875c-0.86328 0-1.5625 0.69922-1.5625 1.5625v7.8125h-12.723c-0.78516-3.0469-3.7148-5.0352-6.8398-4.6367-3.1211 0.39453-5.4609 3.0508-5.4609 6.1992s2.3398 5.8047 5.4609 6.1992c3.125 0.39844 6.0547-1.5898 6.8398-4.6367h12.723v18.75h-9.375c-0.64062 0-1.2148 0.39062-1.4531 0.98438l-5.4375 13.594c-2.9102-1.2969-6.3281-0.23047-7.9883 2.4844-1.6641 2.7188-1.0508 6.2461 1.4258 8.2461 2.4805 2 6.0547 1.8555 8.3633-0.34375 2.3047-2.1992 2.6211-5.7656 0.74219-8.3359l5.4062-13.504h8.3164v4.6875c0 0.41406 0.16406 0.8125 0.45703 1.1055s0.69141 0.45703 1.1055 0.45703h18.75v4.9102c-3.0469 0.78516-5.0352 3.7148-4.6367 6.8398 0.39453 3.1211 3.0508 5.4609 6.1992 5.4609s5.8047-2.3398 6.1992-5.4609c0.39844-3.125-1.5898-6.0547-4.6367-6.8398v-4.9102h18.75c0.41406 0 0.8125-0.16406 1.1055-0.45703s0.45703-0.69141 0.45703-1.1055v-4.6875h8.3164l5.4062 13.512c-0.79297 1.0625-1.2188 2.3516-1.2227 3.6758-0.007812 2.7734 1.8086 5.2188 4.4609 6.0156 2.6562 0.79688 5.5195-0.24219 7.0391-2.5586 1.5234-2.3164 1.3438-5.3555-0.44141-7.4766-1.7852-2.1211-4.75-2.8164-7.293-1.7109l-5.4375-13.594c-0.23828-0.59375-0.8125-0.98828-1.4531-0.98828h-9.375v-18.75h12.723c0.78516 3.0469 3.7148 5.0352 6.8398 4.6367 3.1211-0.39453 5.4609-3.0508 5.4609-6.1992s-2.3398-5.8047-5.4609-6.1992c-3.125-0.39844-6.0547 1.5898-6.8398 4.6367h-12.723v-7.8125c0-0.41406-0.16406-0.8125-0.45703-1.1055s-0.69141-0.45703-1.1055-0.45703h-4.6875v-3.125c0-2.7461-0.73047-5.4414-2.1133-7.8125h9.9258c0.41406 0 0.8125-0.16406 1.1055-0.45703zm16.082-21.418c1.2656 0 2.4023 0.76172 2.8867 1.9297 0.48438 1.168 0.21484 2.5117-0.67578 3.4062-0.89453 0.89062-2.2383 1.1602-3.4062 0.67578-1.168-0.48438-1.9297-1.6211-1.9297-2.8867 0-1.7266 1.3984-3.125 3.125-3.125zm-84.375 3.125c0-1.2656 0.76172-2.4023 1.9297-2.8867 1.168-0.48438 2.5117-0.21484 3.4062 0.67578 0.89062 0.89453 1.1602 2.2383 0.67578 3.4062-0.48438 1.168-1.6211 1.9297-2.8867 1.9297-1.7266 0-3.125-1.3984-3.125-3.125zm3.125 43.75c-1.2656 0-2.4023-0.76172-2.8867-1.9297-0.48438-1.168-0.21484-2.5117 0.67578-3.4062 0.89453-0.89062 2.2383-1.1602 3.4062-0.67578 1.168 0.48438 1.9297 1.6211 1.9297 2.8867 0 0.82812-0.32812 1.625-0.91406 2.2109-0.58594 0.58594-1.3828 0.91406-2.2109 0.91406zm0 40.625c-1.2656 0-2.4023-0.76172-2.8867-1.9297-0.48438-1.168-0.21484-2.5117 0.67578-3.4062 0.89453-0.89062 2.2383-1.1602 3.4062-0.67578 1.168 0.48438 1.9297 1.6211 1.9297 2.8867 0 0.82812-0.32812 1.625-0.91406 2.2109-0.58594 0.58594-1.3828 0.91406-2.2109 0.91406zm43.75-3.125c0 1.2656-0.76172 2.4023-1.9297 2.8867-1.168 0.48438-2.5117 0.21484-3.4062-0.67578-0.89062-0.89453-1.1602-2.2383-0.67578-3.4062 0.48438-1.168 1.6211-1.9297 2.8867-1.9297 0.82812 0 1.625 0.32812 2.2109 0.91406 0.58594 0.58594 0.91406 1.3828 0.91406 2.2109zm40.625 0c0 1.2656-0.76172 2.4023-1.9297 2.8867-1.168 0.48438-2.5117 0.21484-3.4062-0.67578-0.89062-0.89453-1.1602-2.2383-0.67578-3.4062 0.48438-1.168 1.6211-1.9297 2.8867-1.9297 0.82812 0 1.625 0.32812 2.2109 0.91406 0.58594 0.58594 0.91406 1.3828 0.91406 2.2109zm-3.125-43.75c1.2656 0 2.4023 0.76172 2.8867 1.9297 0.48438 1.168 0.21484 2.5117-0.67578 3.4062-0.89453 0.89062-2.2383 1.1602-3.4062 0.67578-1.168-0.48438-1.9297-1.6211-1.9297-2.8867 0-1.7266 1.3984-3.125 3.125-3.125zm-43.75-37.5c0-1.2656 0.76172-2.4023 1.9297-2.8867 1.168-0.48438 2.5117-0.21484 3.4062 0.67578 0.89062 0.89453 1.1602 2.2383 0.67578 3.4062-0.48438 1.168-1.6211 1.9297-2.8867 1.9297-1.7266 0-3.125-1.3984-3.125-3.125zm21.875 67.188h-37.5v-34.375h37.5zm-31.25-37.5v-3.125c0-6.9023 5.5977-12.5 12.5-12.5s12.5 5.5977 12.5 12.5v3.125z"/>
 </g>
</svg>
