<?xml version="1.0" encoding="UTF-8"?>
<svg fill="#f35843" width="44pt" height="44pt" version="1.1" viewBox="0 0 100 100" xmlns="http://www.w3.org/2000/svg">
 <g>
  <path d="m56.25 68.75c1.8945 0 3.6055-1.1406 4.332-2.8945 0.72266-1.75 0.32422-3.7656-1.0156-5.1094-1.3438-1.3398-3.3594-1.7383-5.1094-1.0156-1.7539 0.72656-2.8945 2.4375-2.8945 4.332 0 2.5898 2.0977 4.6875 4.6875 4.6875zm0-6.25c0.63281 0 1.2031 0.37891 1.4453 0.96484 0.23828 0.58203 0.10547 1.2539-0.33984 1.7031-0.44922 0.44531-1.1211 0.57812-1.7031 0.33984-0.58594-0.24219-0.96484-0.8125-0.96484-1.4453 0-0.86328 0.69922-1.5625 1.5625-1.5625z"/>
  <path d="m81.25 17.188h3.125v3.125h-3.125z"/>
  <path d="m75 17.188h3.125v3.125h-3.125z"/>
  <path d="m68.75 17.188h3.125v3.125h-3.125z"/>
  <path d="m62.5 17.188h3.125v3.125h-3.125z"/>
  <path d="m56.25 17.188h3.125v3.125h-3.125z"/>
  <path d="m50 17.188h3.125v3.125h-3.125z"/>
  <path d="m43.75 17.188h3.125v3.125h-3.125z"/>
  <path d="m37.5 17.188h3.125v3.125h-3.125z"/>
  <path d="m31.25 17.188h3.125v3.125h-3.125z"/>
  <path d="m12.5 79.688h9.375v-9.375h27.406c2.5898 2.8984 6.6953 3.8945 10.324 2.5078 3.6289-1.3906 6.0234-4.875 6.0195-8.7578v-12.5h-3.125v-9.375h28.125v-20.438l5.957-8.3438c0.33984-0.47266 0.38672-1.1016 0.11719-1.6211-0.26562-0.51953-0.80078-0.84766-1.3867-0.84766h-71.875c-0.86328 0-1.5625 0.69922-1.5625 1.5625v21.875c0 0.41406 0.16406 0.8125 0.45703 1.1055s0.69141 0.45703 1.1055 0.45703h4.6875v6.25h21.875v9.375h-3.125v6.25h-25v-9.375h-9.375v-9.375h-9.375v50h9.375zm12.5-46.875v-18.75h67.277l-8.9297 12.5h-52.098v3.125h49.867l-2.2344 3.125zm6.25 6.25v-3.125h49.242l7.0078-9.8125v12.938zm21.875 3.125h6.25v9.375h-6.25zm-3.125 12.5h12.5v9.375c0.007812 2.6758-1.6914 5.0586-4.2266 5.918-2.5352 0.85938-5.332 0.003906-6.9531-2.125l-0.039062-0.042969c-0.18359-0.25-0.35156-0.50781-0.5-0.78125-0.03125-0.054688-0.0625-0.10938-0.089844-0.16406h0.003906c-0.11719-0.22656-0.21875-0.45703-0.30469-0.69531-0.054687-0.15625-0.10156-0.3125-0.14453-0.46875-0.042969-0.15625-0.097656-0.34766-0.13281-0.52734-0.070312-0.36719-0.10938-0.73828-0.11328-1.1133zm-3.125 6.25v3.125c0.003906 0.49609 0.046875 0.99219 0.12891 1.4844 0.007813 0.054687 0.015625 0.11328 0.027344 0.17188v-0.003906c0.089844 0.5 0.21875 0.99219 0.39062 1.4727h-25.547v-6.25zm-28.125-9.375v25h-6.25v-25zm-9.375 34.375h-3.125v-43.75h3.125z"/>
 </g>
</svg>
