<?xml version="1.0" encoding="UTF-8"?>
<svg fill="#f35843" width="44pt" height="44pt" version="1.1" viewBox="0 0 100 100" xmlns="http://www.w3.org/2000/svg">
 <g>
  <path d="m96.27 97.762c0.89453 0 1.4922-0.59766 1.4922-1.4922s-0.59766-1.4922-1.4922-1.4922h-11.793v-88.211c0-2.3867-1.9414-4.3281-4.3281-4.3281h-60.297c-2.3867 0-4.3281 1.9414-4.3281 4.3281v88.207l-11.793 0.003906c-0.89453 0-1.4922 0.59766-1.4922 1.4922s0.59766 1.4922 1.4922 1.4922h92.539zm-21.941-2.9844h-15.223v-17.016h5.375c0.89453 0 1.4922-0.59766 1.4922-1.4922l-0.003906-21.645c0-4.3281-3.4336-7.7617-7.7617-7.7617l-16.266 0.003907c-4.3281 0-7.7617 3.4336-7.7617 7.7617v21.641c0 0.89453 0.59766 1.4922 1.4922 1.4922h5.375v17.016h-15.375v-79.402h48.508v79.402zm-22.836 0v-8.957c0-0.89453-0.59766-1.4922-1.4922-1.4922s-1.4922 0.59766-1.4922 1.4922v8.957h-4.625v-26.867c0-0.89453-0.59766-1.4922-1.4922-1.4922s-1.4922 0.59766-1.4922 1.4922v6.7148h-3.8789l-0.003906-20c0-2.6875 2.2383-4.7773 4.7773-4.7773h16.121c2.6875 0 4.7773 2.2383 4.7773 4.7773v20.148h-3.8789v-6.7148c0-0.89453-0.59766-1.4922-1.4922-1.4922-0.89453 0-1.4922 0.59766-1.4922 1.4922v26.867h-4.3359zm25.82 0v-80.898c0-0.89453-0.59766-1.4922-1.4922-1.4922h-51.641c-0.89453 0-1.4922 0.59766-1.4922 1.4922v80.895h-4.1797v-88.207c0-0.74609 0.59766-1.3438 1.3438-1.3438h60.148c0.74609 0 1.3438 0.59766 1.3438 1.3438v88.207z"/>
  <path d="m50 43.285c5.6719 0 10.297-4.625 10.297-10.297s-4.625-10.297-10.297-10.297-10.297 4.625-10.297 10.297c0 5.668 4.625 10.297 10.297 10.297zm0-17.613c4.0312 0 7.3125 3.2852 7.3125 7.3125 0 4.0312-3.2812 7.3125-7.3125 7.3125s-7.3125-3.2852-7.3125-7.3125 3.2812-7.3125 7.3125-7.3125z"/>
  <path d="m42.539 7.7617c-0.59766 0.59766-0.59766 1.4922 0 2.0898 0.74609 0.59766 1.6406 0.59766 2.2383 0 0.59766-0.44922 0.59766-1.4922 0-2.0898-0.59766-0.59766-1.6445-0.59766-2.2383 0z"/>
  <path d="m48.957 7.7617c-0.59766 0.59766-0.59766 1.4922 0 2.0898 0.59766 0.59766 1.4922 0.59766 2.0898 0 0.59766-0.59766 0.59766-1.4922 0-2.0898-0.59766-0.59766-1.4961-0.59766-2.0898 0z"/>
  <path d="m55.223 7.7617c-0.59766 0.59766-0.59766 1.4922 0 2.0898 0.59766 0.59766 1.4922 0.59766 2.0898 0 0.59766-0.59766 0.59766-1.4922 0-2.0898-0.44531-0.59766-1.4922-0.59766-2.0898 0z"/>
 </g>
</svg>
