<?xml version="1.0" encoding="UTF-8" standalone="no"?>
<svg
   xmlns:dc="http://purl.org/dc/elements/1.1/"
   xmlns:cc="http://creativecommons.org/ns#"
   xmlns:rdf="http://www.w3.org/1999/02/22-rdf-syntax-ns#"
   xmlns:svg="http://www.w3.org/2000/svg"
   xmlns="http://www.w3.org/2000/svg"
   viewBox="0 0 602.70135 630.38666"
   height="630.38666"
   width="602.70135"
   xml:space="preserve"
   id="svg2"
   version="1.1"><metadata
     id="metadata8"><rdf:RDF><cc:Work
         rdf:about=""><dc:format>image/svg+xml</dc:format><dc:type
           rdf:resource="http://purl.org/dc/dcmitype/StillImage" /></cc:Work></rdf:RDF></metadata><defs
     id="defs6"><clipPath
       id="clipPath18"
       clipPathUnits="userSpaceOnUse"><path
         id="path16"
         d="M 0,472.79 H 452.026 V 0 H 0 Z" /></clipPath></defs><g
     transform="matrix(1.3333333,0,0,-1.3333333,0,630.38667)"
     id="g10"><g
       id="g12"><g
         clip-path="url(#clipPath18)"
         id="g14"><g
           transform="translate(226.0127,472.79)"
           id="g20"><path
             id="path22"
             style="fill:#ffffff;fill-opacity:1;fill-rule:nonzero;stroke:none"
             d="m 0,0 c -124.823,0 -226.013,-105.837 -226.013,-236.395 0,-130.558 101.19,-236.395 226.013,-236.395 124.823,0 226.013,105.837 226.013,236.395 C 226.013,-105.837 124.823,0 0,0 m 0,-14 c 28.549,0 56.242,-5.848 82.311,-17.38 25.229,-11.162 47.901,-27.154 67.385,-47.533 19.527,-20.423 34.861,-44.215 45.576,-70.715 11.109,-27.469 16.741,-56.661 16.741,-86.767 0,-30.106 -5.632,-59.299 -16.741,-86.767 -10.715,-26.5 -26.049,-50.292 -45.576,-70.714 -19.484,-20.38 -42.156,-36.373 -67.385,-47.534 C 56.242,-452.943 28.549,-458.79 0,-458.79 c -28.548,0 -56.242,5.847 -82.31,17.38 -25.23,11.161 -47.901,27.154 -67.386,47.534 -19.526,20.422 -34.861,44.214 -45.576,70.714 -11.108,27.468 -16.741,56.661 -16.741,86.767 0,30.106 5.633,59.298 16.741,86.767 10.715,26.5 26.05,50.292 45.576,70.715 19.485,20.379 42.156,36.371 67.386,47.533 C -56.242,-19.848 -28.548,-14 0,-14" /></g><g
           transform="translate(277.5127,237.6777)"
           id="g24"><path
             id="path26"
             style="fill:#ffffff;fill-opacity:1;fill-rule:nonzero;stroke:none"
             d="m 0,0 c 0,-100.083 -23.058,-181.217 -51.5,-181.217 -28.442,0 -51.5,81.134 -51.5,181.217 0,100.083 23.058,181.217 51.5,181.217 C -23.058,181.217 0,100.083 0,0" /></g><g
           transform="translate(261.9463,237.6777)"
           id="g28"><path
             id="path30"
             style="fill:#3080b9;fill-opacity:1;fill-rule:nonzero;stroke:none"
             d="m 0,0 c 0,-69.832 -16.088,-159.783 -35.934,-159.783 -19.845,0 -35.933,89.951 -35.933,159.783 0,69.832 16.088,126.442 35.933,126.442 C -16.088,126.442 0,69.832 0,0" /></g><g
           transform="translate(245.9463,394.895)"
           id="g32"><path
             id="path34"
             style="fill:#0d7ab3;fill-opacity:1;fill-rule:nonzero;stroke:none"
             d="m 0,0 c 0,-11.046 -8.954,-27 -20,-27 -11.046,0 -20,15.954 -20,27 0,11.046 8.954,24 20,24 C -8.954,24 0,11.046 0,0" /></g><g
           transform="translate(249.9463,232.1108)"
           id="g36"><path
             id="path38"
             style="fill:#ffffff;fill-opacity:1;fill-rule:nonzero;stroke:none"
             d="m 0,0 c 0,-46.512 -10.716,-106.424 -23.934,-106.424 -13.217,0 -23.933,59.912 -23.933,106.424 0,46.511 10.716,84.216 23.933,84.216 C -10.716,84.216 0,46.511 0,0" /></g></g></g></g></svg>