<svg xmlns="http://www.w3.org/2000/svg" xmlns:xlink="http://www.w3.org/1999/xlink" viewBox="-1435 4672 35 35"><defs><style>.a,.c{fill:#fff;}.a{stroke:#707070;}.b{clip-path:url(#a);}.c{fill-rule:evenodd;}.d{filter:url(#f);}.e{filter:url(#d);}.f{filter:url(#b);}</style><clipPath id="a"><rect class="a" width="35" height="35" rx="17.5" transform="translate(139 4560)"/></clipPath><filter id="b" x="-1432.499" y="4674.501" width="30.997" height="30.998" filterUnits="userSpaceOnUse"><feOffset input="SourceAlpha"/><feGaussianBlur stdDeviation="3" result="c"/><feFlood flood-color="#fff" flood-opacity="0.161"/><feComposite operator="in" in2="c"/><feComposite in="SourceGraphic"/></filter><filter id="d" x="-1428.471" y="4678.529" width="22.942" height="22.942" filterUnits="userSpaceOnUse"><feOffset input="SourceAlpha"/><feGaussianBlur stdDeviation="3" result="e"/><feFlood flood-color="#fff" flood-opacity="0.161"/><feComposite operator="in" in2="e"/><feComposite in="SourceGraphic"/></filter><filter id="f" x="-1446.138" y="4662.645" width="55.511" height="53.771" filterUnits="userSpaceOnUse"><feOffset input="SourceAlpha"/><feGaussianBlur stdDeviation="3" result="g"/><feFlood flood-color="#fff" flood-opacity="0.161"/><feComposite operator="in" in2="g"/><feComposite in="SourceGraphic"/></filter></defs><g class="b" transform="translate(-1574 112)"><g transform="translate(145 4566)"><g class="f" transform="matrix(1, 0, 0, 1, 1429, -4678)"><path class="c" d="M16.116,5.5H7.884A2.386,2.386,0,0,0,5.5,7.884v8.232A2.386,2.386,0,0,0,7.884,18.5h8.232A2.386,2.386,0,0,0,18.5,16.116V7.884A2.386,2.386,0,0,0,16.116,5.5ZM12,16.279A4.279,4.279,0,1,1,16.279,12,4.284,4.284,0,0,1,12,16.279Zm4.417-7.673a1.012,1.012,0,1,1,1.012-1.012A1.014,1.014,0,0,1,16.416,8.606Z" transform="translate(-1429 4678)"/></g><g class="e" transform="matrix(1, 0, 0, 1, 1429, -4678)"><path class="c" d="M12,9.53A2.471,2.471,0,1,0,14.47,12,2.474,2.474,0,0,0,12,9.53Z" transform="translate(-1429 4678)"/></g><g class="d" transform="matrix(1, 0, 0, 1, 1429, -4678)"><path class="c" d="M-6-6.355-8.138,29.417H29.373V-5.865ZM20.307,16.116a4.2,4.2,0,0,1-4.191,4.191H7.884a4.2,4.2,0,0,1-4.191-4.191V7.884A4.2,4.2,0,0,1,7.884,3.693h8.232a4.2,4.2,0,0,1,4.191,4.191Z" transform="translate(-1429 4678)"/></g></g></g></svg>