<?xml version="1.0" encoding="UTF-8"?>
<svg width="100pt" fill="#fff" height="100pt" version="1.1" viewBox="0 0 100 100" xmlns="http://www.w3.org/2000/svg">
 <g>
  <path d="m92.84 36.52c0-2.6523-1.0547-5.1953-2.9297-7.0703s-4.418-2.9297-7.0703-2.9297h-12.141l-1.2891-5.1602c-1.1133-4.4492-5.1133-7.5703-9.6992-7.5703h-19.422c-4.5859 0-8.5859 3.1211-9.6992 7.5703l-1.2891 5.1602h-12.141c-5.5234 0-10 4.4766-10 10v39.691c0 2.6523 1.0547 5.1953 2.9297 7.0703s4.418 2.9297 7.0703 2.9297h65.68c2.6523 0 5.1953-1.0547 7.0703-2.9297s2.9297-4.418 2.9297-7.0703zm-4 39.691c0 3.3125-2.6875 6-6 6h-65.68c-3.3125 0-6-2.6875-6-6v-39.691c0-3.3125 2.6875-6 6-6h13.699c0.91797 0 1.7188-0.62891 1.9414-1.5195l1.6719-6.6719h-0.003906c0.67188-2.668 3.0703-4.5391 5.8203-4.5391h19.422c2.75 0 5.1484 1.8711 5.8203 4.5391l1.668 6.6719c0.22656 0.88672 1.0234 1.5117 1.9414 1.5117h13.699c3.3125 0 6 2.6836 6 6z"/>
  <path d="m50 33.211c-5.5703 0-10.91 2.2109-14.848 6.1484-3.9414 3.9414-6.1523 9.2812-6.1523 14.852 0 5.5703 2.2109 10.91 6.1523 14.848 3.9375 3.9375 9.2773 6.1523 14.848 6.1523s10.91-2.2148 14.848-6.1523c3.9414-3.9375 6.1523-9.2773 6.1523-14.848-0.019531-5.5664-2.2383-10.895-6.1719-14.828-3.9336-3.9375-9.2656-6.1562-14.828-6.1719zm0 38.09c-4.5078 0-8.832-1.793-12.02-4.9805s-4.9805-7.5117-4.9805-12.02c0-4.5078 1.793-8.832 4.9805-12.023 3.1875-3.1875 7.5117-4.9766 12.02-4.9766s8.832 1.7891 12.02 4.9766c3.1875 3.1914 4.9805 7.5156 4.9805 12.023-0.015625 4.5039-1.8125 8.8164-4.9961 12.004-3.1836 3.1836-7.5 4.9805-12.004 4.9961z"/>
 </g>
</svg>
