<?xml version="1.0" encoding="UTF-8"?>
<svg fill="#ffffff" width="100pt" height="100pt" version="1.1" viewBox="0 0 100 100" xmlns="http://www.w3.org/2000/svg">
 <path d="m72.875 29.969c-1.0391 0.03125-2.0273 0.46875-2.75 1.2188-9.8867 9.9062-18.891 19.68-28.5 29.438l-12.156-9.7188c-0.82812-0.66406-1.8867-0.96875-2.9414-0.85156-1.0547 0.11719-2.0195 0.64844-2.6836 1.4766-1.3828 1.7266-1.1016 4.2461 0.625 5.625l15 12c1.5977 1.2773 3.9062 1.1445 5.3438-0.3125 10.75-10.773 20.414-21.395 31-32 1.1953-1.1523 1.5508-2.9219 0.89844-4.4492-0.65234-1.5273-2.1797-2.4922-3.8359-2.4258z"/>
</svg>
