<?xml version="1.0" encoding="UTF-8"?>
<svg width="100pt" fill="#ffffff" height="100pt" version="1.1" viewBox="0 0 100 100" xmlns="http://www.w3.org/2000/svg">
 <g>
  <path d="m81.695 78.109c0 3.6719-2.9844 6.7656-6.6523 6.7656h-53.246c-3.6719 0-6.6523-3.0977-6.6523-6.7656l-0.003906-53.246c0-3.6719 2.9844-6.5469 6.6523-6.5469h31.059l0.003907-4.4336h-31.059c-6.1172 0-11.09 4.8672-11.09 10.984v53.242c0 6.1172 4.9766 11.199 11.09 11.199h53.242c6.1172 0 11.09-5.0859 11.09-11.199v-30.949h-4.4375v30.949z"/>
  <path d="m86.695 13.207c-3.3516-3.3555-9.1953-3.3555-12.551 0l-29.762 29.762c-0.28516 0.28516-0.48828 0.64062-0.58203 1.0273l-3.1328 12.551c-0.1875 0.75391 0.035156 1.5547 0.58203 2.1094 0.42188 0.42188 0.98828 0.64844 1.5664 0.64844 0.17969 0 0.35938-0.019532 0.53906-0.066407l12.551-3.1367c0.39062-0.097656 0.74609-0.30078 1.0273-0.58203l29.762-29.762c1.6758-1.6758 2.6016-3.9023 2.6016-6.2734 0-2.375-0.92188-4.6016-2.6016-6.2773zm-32.461 38.738l-8.3672 2.0898 2.0898-8.3672 24.621-24.621 6.2734 6.2734zm29.324-29.328l-1.5664 1.5664-6.2734-6.2734 1.5664-1.5664c1.6758-1.6758 4.6016-1.6758 6.2734 0 0.83594 0.83594 1.3008 1.9492 1.3008 3.1367s-0.46484 2.2969-1.3008 3.1367z"/>
 </g>
</svg>
