<?xml version="1.0" encoding="UTF-8"?>
<svg fill="#ffffff" width="100pt" height="100pt" version="1.1" viewBox="0 0 100 100" xmlns="http://www.w3.org/2000/svg">
 <path d="m7.793 6.5c-1.1953 0.10156-2.0938 1.4922-1.6992 2.6289v68.582c0.007812 0.80859 0.5625 1.5898 1.3281 1.8555l39.508 13.848c1.1797 0.41016 2.6133-0.60156 2.625-1.8555v-11.867h15.805c1.0352 0 1.9766-0.94141 1.9766-1.9766v-27.691c0.023437-1.1211-1.0781-2.1328-2.1914-2.0078-0.96875 0.10547-1.7812 1.0312-1.7578 2.0078v25.715h-13.828v-47.473c0.011718-0.73438-0.42578-1.4609-1.082-1.793l-31.977-16.008h46.883v25.715c-0.015624 1.0469 0.93359 2.0078 1.9766 2.0078s1.9883-0.96484 1.9766-2.0078v-27.691c0-1.0352-0.94141-1.9766-1.9766-1.9766zm2.2539 5.1914 35.559 17.801v59.246l-35.559-12.453zm64.23 23.242 10.465 6.1797h-32.223c-0.0625-0.003906-0.125-0.003906-0.18359 0-0.98438 0.050781-1.8398 1.0352-1.7891 2.0703 0.046875 1.0352 0.98828 1.9375 1.9766 1.8867h32.348l-10.586 6.2422c-0.78516 0.57031-1.043 1.7578-0.55469 2.5977 0.48828 0.83594 1.6523 1.207 2.5312 0.80469l16.762-9.6445c0.71875-0.45312 0.87109-1.3242 0.98828-1.9766-0.10156-0.78125-0.60938-1.4961-0.98828-1.9766l-16.762-9.582c-2.3516-0.32422-3.0547 2.1523-1.9766 3.3984z"/>
</svg>
