<?xml version="1.0" encoding="UTF-8"?>
<svg width="100pt" height="100pt" version="1.1" viewBox="0 0 100 100" xmlns="http://www.w3.org/2000/svg">
 <path d="m50 50c-21.027 0-37.5 8.9219-37.5 20.312s16.473 20.312 37.5 20.312 37.5-8.9219 37.5-20.312-16.473-20.312-37.5-20.312zm0 34.375c-18.418 0-31.25-7.4102-31.25-14.062s12.832-14.062 31.25-14.062 31.25 7.4102 31.25 14.062-12.832 14.062-31.25 14.062zm0-40.625c9.4766 0 17.188-7.7109 17.188-17.188s-7.7109-17.188-17.188-17.188-17.188 7.7109-17.188 17.188 7.7109 17.188 17.188 17.188zm0-28.125c6.0312 0 10.938 4.9062 10.938 10.938s-4.9062 10.938-10.938 10.938-10.938-4.9062-10.938-10.938 4.9062-10.938 10.938-10.938z"/>
</svg>
