<?xml version="1.0" encoding="UTF-8"?>
<svg width="100pt" fill="#fff" height="100pt" version="1.1" viewBox="0 0 100 100" xmlns="http://www.w3.org/2000/svg">
 <g>
  <path d="m32.355 14.484c-3.7734 0-7.4336 1.2812-10.387 3.625-2.9531 2.3477-5.0273 5.625-5.8828 9.2969h-12.246c-2.1211 0-3.8398 1.7188-3.8398 3.8398s1.7188 3.8438 3.8398 3.8438h12.246c1.168 4.918 4.4961 9.043 9.0586 11.223 4.5586 2.1797 9.8594 2.1797 14.422 0 4.5586-2.1797 7.8867-6.3047 9.0547-11.223h47.539c2.1211 0 3.8398-1.7227 3.8398-3.8438s-1.7188-3.8398-3.8398-3.8398h-47.539c-0.85547-3.6719-2.9297-6.9492-5.8828-9.2969-2.9531-2.3438-6.6133-3.625-10.383-3.625zm0 25.848v-0.003906c-3.6562 0-6.9531-2.1992-8.3516-5.5781-1.3984-3.375-0.625-7.2617 1.9609-9.8477 2.582-2.5859 6.4727-3.3594 9.8477-1.9609 3.3789 1.3984 5.5781 4.6953 5.5781 8.3516 0 2.3945-0.94922 4.6953-2.6445 6.3906-1.6953 1.6953-3.9961 2.6445-6.3906 2.6445z"/>
  <path d="m67.781 51.988c-3.7734 0.003907-7.4297 1.2812-10.383 3.6289-2.957 2.3438-5.0273 5.6211-5.8828 9.293h-47.676c-2.1211 0-3.8398 1.7227-3.8398 3.8438s1.7188 3.8398 3.8398 3.8398h47.539c1.168 4.918 4.4961 9.043 9.0547 11.223 4.5625 2.1797 9.8633 2.1797 14.422 0 4.5625-2.1797 7.8906-6.3047 9.0586-11.223h12.246c2.1211 0 3.8398-1.7188 3.8398-3.8398s-1.7188-3.8438-3.8398-3.8438h-12.246c-0.85156-3.6484-2.9062-6.9062-5.832-9.25s-6.5508-3.6367-10.301-3.6719zm0 25.758c-3.6562 0-6.9492-2.2031-8.3477-5.5781-1.4023-3.3789-0.62891-7.2656 1.957-9.8516 2.5859-2.582 6.4727-3.3555 9.8477-1.957 3.3789 1.3984 5.582 4.6914 5.582 8.3477 0 2.3984-0.95312 4.6953-2.6484 6.3906-1.6953 1.6953-3.9922 2.6484-6.3906 2.6484z"/>
 </g>
</svg>
