<?xml version="1.0" encoding="UTF-8"?>
<svg width="100pt" height="100pt" version="1.1" viewBox="0 0 100 100" xmlns="http://www.w3.org/2000/svg">
 <path d="m80.199 75.898l-11.199-11.098c8.5-10.602 7.6992-26.199-2-35.898-5.1016-5.1016-11.801-7.9023-19-7.9023s-14 2.8008-19.102 7.8984c-5.0977 5.1016-7.8984 11.801-7.8984 19.102s2.8008 14 7.8984 19.102c5.1016 5 11.801 7.8984 19.102 7.8984 6.1016 0 12.102-2.1016 16.801-5.8984l11.102 11.102c0.60156 0.60156 1.3008 0.89844 2.1016 0.89844 0.80078 0 1.6016-0.30078 2.1016-0.89844 1.1953-1.2031 1.1953-3.1016 0.09375-4.3047zm-11.199-27.898c0 5.6016-2.1992 10.898-6.1992 14.801-4 3.8984-9.1992 6.1992-14.801 6.1992s-10.898-2.1992-14.801-6.1992c-3.8984-4-6.1992-9.1992-6.1992-14.801s2.1992-10.898 6.1992-14.801c4-3.8984 9.1016-6.1992 14.801-6.1992 5.6016 0 10.898 2.1992 14.801 6.1992 3.8984 4 6.1992 9.1016 6.1992 14.801z"/>
</svg>
